<svg id="Layer_1" data-name="Layer 1" xmlns="http://www.w3.org/2000/svg" viewBox="0 0 429.21 457.26"><defs><style>.cls-1{fill:#f5f6f6;}.cls-2{fill:#e0e1e0;}.cls-3{fill:#1bbdc7;}.cls-11,.cls-12,.cls-4{fill:#010101;}.cls-4{opacity:0.15;}.cls-11,.cls-12,.cls-14,.cls-4,.cls-5,.cls-6{isolation:isolate;}.cls-14,.cls-5,.cls-6{fill:#fff;}.cls-5{opacity:0.25;}.cls-6{opacity:0.4;}.cls-7{fill:#465b65;}.cls-8{fill:#273339;}.cls-9{fill:#9b4b4e;}.cls-10{fill:#e6e6e5;}.cls-11{opacity:0.1;}.cls-12{opacity:0.05;}.cls-13{fill:#fafbfc;}.cls-14{opacity:0.3;}.cls-15{fill:#b16769;}.cls-16{fill:#384850;}</style></defs><title>designing</title><g id="Floor"><path id="Floor-2" class="cls-1" d="M83.61,469c83.81,46.27,219.69,46.27,303.5,0s83.8-121.31,0-167.58-219.7-46.28-303.5,0S-.21,422.74,83.61,469Z" transform="translate(-20.75 -46.47)"/></g><g id="Shadow"><ellipse class="cls-2" cx="358.44" cy="351.77" rx="46.98" ry="28.66"/></g><g id="Pen_tool" data-name="Pen tool"><path class="cls-3" d="M139.9,165.93c-4.6,2.81-8.34,10.34-8.34,16.84,0,5.78,3,8.78,6.84,7.37v122.7L96.09,219a8.36,8.36,0,0,1-.08-5.73,298.22,298.22,0,0,0,21.25-85.77,6.88,6.88,0,0,1,2.85-4.71l39.52-24.12a1.71,1.71,0,0,1,2.5.24,1.94,1.94,0,0,1,.4,1.36c2.66,26.13,10.22,45.5,20.48,58.57a6.65,6.65,0,0,1,1.08,5.38c-5.94,20.43-40.23,138.27-42.72,146.83V188.35c3.91-3.37,6.85-10,6.85-15.76C148.24,166.09,144.51,163.12,139.9,165.93Z" transform="translate(-20.75 -46.47)"/><path class="cls-3" d="M203.45,176,160.73,322.83,157.8,321v3.62l-19.35-11.82L96.14,219a8.3,8.3,0,0,1-.08-5.73,298.22,298.22,0,0,0,21.25-85.77,6.88,6.88,0,0,1,2.85-4.71l39.52-24.12a5.43,5.43,0,0,1,5.16,0l14.21,8.66a7,7,0,0,1,2.87,4.72c2.65,26.13,10.22,45.5,20.48,58.56A6.65,6.65,0,0,1,203.45,176Z" transform="translate(-20.75 -46.47)"/><path class="cls-4" d="M167.61,184.4c0,5.8-2.94,12.41-6.85,15.76v122.7l-2.94-1.79V202c-3.91,1.42-6.84-1.57-6.84-7.35,0-6.51,3.72-14,8.33-16.86S167.61,177.92,167.61,184.4Z" transform="translate(-20.75 -46.47)"/><path class="cls-3" d="M203.45,176,160.73,322.83V200.16c3.91-3.35,6.85-10,6.85-15.76,0-6.48-3.73-9.47-8.34-6.66s-8.33,10.34-8.33,16.86c0,5.78,2.93,8.77,6.85,7.35V324.66l-42.33-93.82a8.25,8.25,0,0,1-.08-5.73,299.14,299.14,0,0,0,21.26-85.82,6.89,6.89,0,0,1,2.84-4.72L179,110.46a1.71,1.71,0,0,1,2.5.32,1.94,1.94,0,0,1,.37,1.24c2.65,26.13,10.22,45.5,20.48,58.56A6.66,6.66,0,0,1,203.45,176Z" transform="translate(-20.75 -46.47)"/><path class="cls-5" d="M137.48,136.91a6.14,6.14,0,0,0-.8,2.41C134,169.53,126.1,199,115.41,225.14a8,8,0,0,0-.46,3.11L95.59,216.44a8.06,8.06,0,0,1,.45-3.16,298.23,298.23,0,0,0,21.26-85.77,6.6,6.6,0,0,1,.81-2.42Z" transform="translate(-20.75 -46.47)"/><path class="cls-4" d="M181.82,111.64a1.73,1.73,0,0,0-2-1.5,1.66,1.66,0,0,0-.81.39l-39.53,24.11a6.08,6.08,0,0,0-2,2.31L118.1,125.09a6.41,6.41,0,0,1,2-2.29l39.52-24.12a5.47,5.47,0,0,1,5.18,0l14.2,8.66A7,7,0,0,1,181.82,111.64Z" transform="translate(-20.75 -46.47)"/><path class="cls-3" d="M108.6,85.33l62.62-38.21a5.41,5.41,0,0,1,5.15,0l14.2,8.68a6.07,6.07,0,0,1,2.58,4.73V89.67a6.13,6.13,0,0,1-2.58,4.73L128,132.66a5.48,5.48,0,0,1-5.16,0L108.59,124a6.11,6.11,0,0,1-2.58-4.72V90.05A6.1,6.1,0,0,1,108.6,85.33Z" transform="translate(-20.75 -46.47)"/><path class="cls-6" d="M193.13,60.08c-.17-1.41-1.26-1.93-2.56-1.13L128,97.17a5.31,5.31,0,0,0-1.83,2.07L106.77,87.43a5.56,5.56,0,0,1,1.83-2.07l62.62-38.21a5.41,5.41,0,0,1,5.15,0l14.2,8.65A6.17,6.17,0,0,1,193.13,60.08Z" transform="translate(-20.75 -46.47)"/><path class="cls-4" d="M127.55,132.81h-.21l-.17.07a.73.73,0,0,1-.25.08l-.3.08h-.22a3.32,3.32,0,0,1-.44.06,5.18,5.18,0,0,1-3.15-.61l-14.21-8.66A6.13,6.13,0,0,1,106,119.1v-29a5.83,5.83,0,0,1,.75-2.68l19.38,11.87a5.59,5.59,0,0,0-.77,2.68v29.15c0,1.25.59,2,1.43,2a1.15,1.15,0,0,0,.37,0A1.72,1.72,0,0,0,127.55,132.81Z" transform="translate(-20.75 -46.47)"/><path class="cls-4" d="M157.82,324.66l-19.37-11.82L96.15,219a7.53,7.53,0,0,1-.55-2.57L115,228.24a7.2,7.2,0,0,0,.55,2.59Z" transform="translate(-20.75 -46.47)"/><path class="cls-4" d="M160.73,200.16v122.7l-2.93-1.79V202c-3.92,1.42-6.85-1.57-6.85-7.35v-.41Z" transform="translate(-20.75 -46.47)"/><path class="cls-7" d="M250.22,164.88c0-3.34-2.21-4.69-4.94-3a11.69,11.69,0,0,0-4.95,9c0,2.7,1.47,4.07,3.47,3.62C241,236.17,200.19,308.8,150.39,339.19c-24.74,15.1-47.94,17.58-65.31,7-16.41-10-25.87-30.63-26.85-58.32a12,12,0,0,0,3.52-7.91c0-3.33-2.21-4.69-4.89-3A11.67,11.67,0,0,0,51.92,286c0,2.84,1.61,4.23,3.79,3.53C57,317.43,66.89,338.26,83.8,348.58A47.84,47.84,0,0,0,109,355.43c13.13,0,27.68-4.65,42.74-13.83,50.93-31.08,92.61-105.76,94.78-168.61A12,12,0,0,0,250.22,164.88Z" transform="translate(-20.75 -46.47)"/><path class="cls-7" d="M245.28,277.1a11.68,11.68,0,0,0-4.75,7.33L61.5,393.68c-.64-2.07-2.49-2.7-4.69-1.36a11.72,11.72,0,0,0-4.94,9.06c0,3.33,2.21,4.68,4.94,3a11.82,11.82,0,0,0,4.8-7.59L240.53,287.65c.58,2.21,2.47,2.93,4.75,1.54a11.7,11.7,0,0,0,4.94-9.05C250.22,276.81,248,275.45,245.28,277.1Z" transform="translate(-20.75 -46.47)"/><path class="cls-7" d="M63.73,282.88a7,7,0,1,1-7-7.44,7.24,7.24,0,0,1,7,7.44Z" transform="translate(-20.75 -46.47)"/><ellipse class="cls-7" cx="35.68" cy="351.77" rx="7.03" ry="7.43"/><path class="cls-7" d="M252.7,283.35a7,7,0,1,1-7-7.43,7.24,7.24,0,0,1,7,7.43Z" transform="translate(-20.75 -46.47)"/><path class="cls-7" d="M252.06,167.74a7,7,0,1,1-7-7.43,7.25,7.25,0,0,1,7,7.43Z" transform="translate(-20.75 -46.47)"/></g><g id="Character"><path class="cls-8" d="M292.29,409.81c-1.46,3.38-6.76,4.13-9.84,4.27-4.7.16-9-2.07-13.19-4.07-2.94-1.41-5.78-3-8.68-4.52s-5.76-3.24-8.91-4c-3.74-.89-10.32-1.31-11.63,3.73-1.4,5.44,5.65,10,9,12.62s7.88,5.49,9.51,9.65c1.95,5.06-4.51,6.65-7.94,6.85-9.73.54-19.29-2.84-28.22-6.52-12.83-5.27-25.6-11.06-39-14.48-11.23-2.86-28.7-5.7-35.22,7.51-.13.26.27.75.45.45,7-12.21,23.13-9.68,34.24-6.85,13.57,3.47,26.42,9.36,39.41,14.67,8.68,3.55,17.79,6.64,27.2,6.47,4.29-.09,13-2,10.28-8.6-1.39-3.42-4.7-5.95-7.4-8.14-3.32-2.7-7.09-5.17-9.71-8.72-1.67-2.26-2.2-5.53.65-7.1,2.44-1.34,5.81-.88,8.36-.22,3.91,1,7.62,3.41,11.2,5.31,3.31,1.76,6.63,3.46,10.05,5,4,1.73,7.94,2.68,12.24,1.93,2.82-.5,7-1.58,8.19-4.76.23-.63-.78-1-1-.43Z" transform="translate(-20.75 -46.47)"/><path class="cls-9" d="M360.54,201.82c-5,6.31-13.28,14.85-18,21.08a18.79,18.79,0,0,0-3.81,11.5c0,3.1.84,5.69,3.71,4.36,2.07-.95,3.39-2.07,6.42-5.23,2.72-2.84,15.86-15.86,15.86-15.86s2.47-16,6.53-17.31,7.52-8.16,7.52-8.16C372.16,191.5,366.88,193.79,360.54,201.82Z" transform="translate(-20.75 -46.47)"/><path class="cls-10" d="M288.52,375v-.12L350.09,133.6h0v-.06a.64.64,0,0,1,.06-.18,3.7,3.7,0,0,1,.44-1,5.47,5.47,0,0,1,.7-.94,7.83,7.83,0,0,1,3.68-2.07c5.48-1.54,13.16.66,17.15,4.9a7.72,7.72,0,0,1,2.37,5,4.31,4.31,0,0,1-.16,1.29L313.42,379.47l-.64,2.5h0c-.46,1.87-2.13,3.39-4.89,4.14-5.5,1.53-13.19-.67-17.19-4.9C288.75,379.17,288,376.92,288.52,375Z" transform="translate(-20.75 -46.47)"/><path class="cls-7" d="M290.59,409.46h0l1.54-6.49h0a1,1,0,0,1,.8-.73,3.11,3.11,0,0,1,2.84.8,1.15,1.15,0,0,1,.36,1h0l-1.51,6.41h0a2.06,2.06,0,0,1-2.66,1.35A2.2,2.2,0,0,1,290.59,409.46Z" transform="translate(-20.75 -46.47)"/><path class="cls-8" d="M290.54,409.83h0v-.39h0c.45,1.32,2.93,2.19,4,1.23a.24.24,0,0,1,0,.12v.12a1.8,1.8,0,0,1-.39.58,2,2,0,0,1-2.94,0A2.18,2.18,0,0,1,290.54,409.83Z" transform="translate(-20.75 -46.47)"/><path class="cls-2" d="M290.53,397.53a10.77,10.77,0,0,0,9.78,2.8,4,4,0,0,0,2.48-1.67l9.09-14.9a7.43,7.43,0,0,1-4,2.42c-5.5,1.54-13.19-.65-17.19-4.9a8.06,8.06,0,0,1-2.31-4.39l.75,17.7a2,2,0,0,0,0,.35A4.45,4.45,0,0,0,290.53,397.53Z" transform="translate(-20.75 -46.47)"/><path class="cls-11" d="M291.13,389.74a13.43,13.43,0,0,0,12.17,3.47c2-.55,3.11-1.62,3.43-3a4.87,4.87,0,0,0-1.54-4.45A13.34,13.34,0,0,0,293,382.31c-1.95.55-3.15,1.65-3.47,3A4.89,4.89,0,0,0,291.13,389.74Z" transform="translate(-20.75 -46.47)"/><path class="cls-2" d="M290.53,397.53a10.77,10.77,0,0,0,9.78,2.8,4,4,0,0,0,2.48-1.67l9.09-14.9a7.43,7.43,0,0,1-4,2.42c-5.5,1.54-13.19-.65-17.19-4.9a8.06,8.06,0,0,1-2.31-4.39l.75,17.7a2,2,0,0,0,0,.35A4.45,4.45,0,0,0,290.53,397.53Z" transform="translate(-20.75 -46.47)"/><path class="cls-3" d="M290.2,402.71h0l-.68-16.15v-.43c0-1.71,1.24-3.1,3.57-3.81a13.35,13.35,0,0,1,12.12,3.48c1.64,1.72,2,3.55,1.35,5a.19.19,0,0,1-.05.09l-.22.39L297.92,405h0a2.25,2.25,0,0,1-1.4.95,6.09,6.09,0,0,1-5.51-1.58A2.42,2.42,0,0,1,290.2,402.71Z" transform="translate(-20.75 -46.47)"/><path class="cls-11" d="M290.2,402.71h0l-.68-16.15v-.43c0-1.71,1.24-3.1,3.57-3.81a13.35,13.35,0,0,1,12.12,3.48c1.64,1.72,2,3.55,1.35,5a.19.19,0,0,1-.05.09l-.22.39L297.92,405h0a2.25,2.25,0,0,1-1.4.95,6.09,6.09,0,0,1-5.51-1.58A2.42,2.42,0,0,1,290.2,402.71Z" transform="translate(-20.75 -46.47)"/><path class="cls-3" d="M291.13,389.74a13.43,13.43,0,0,0,12.17,3.47c2-.55,3.11-1.62,3.43-3a4.87,4.87,0,0,0-1.54-4.45A13.34,13.34,0,0,0,293,382.31c-1.95.55-3.15,1.65-3.47,3A4.89,4.89,0,0,0,291.13,389.74Z" transform="translate(-20.75 -46.47)"/><path class="cls-3" d="M291.13,389.74a13.43,13.43,0,0,0,12.17,3.47c2-.55,3.11-1.62,3.43-3a4.87,4.87,0,0,0-1.54-4.45A13.34,13.34,0,0,0,293,382.31c-1.95.55-3.15,1.65-3.47,3A4.89,4.89,0,0,0,291.13,389.74Z" transform="translate(-20.75 -46.47)"/><path class="cls-12" d="M289.57,385.32a4,4,0,0,1,2.63-2.71,19.73,19.73,0,0,0,13.63,4,4.32,4.32,0,0,1,.9,3.67c-.32,1.34-1.51,2.41-3.43,3a13.43,13.43,0,0,1-12.17-3.47A4.81,4.81,0,0,1,289.57,385.32Z" transform="translate(-20.75 -46.47)"/><path class="cls-3" d="M291,404.36a6.13,6.13,0,0,0,5.53,1.58,2.34,2.34,0,0,0,1.39-1h0l4.05-6.62a4,4,0,0,1-2,1.22,9.71,9.71,0,0,1-8.8-2.51,4.08,4.08,0,0,1-1.19-2.26l.32,7.9h0A2.41,2.41,0,0,0,291,404.36Z" transform="translate(-20.75 -46.47)"/><path class="cls-13" d="M351.12,163.07a2.24,2.24,0,0,1,1.74-1.5,6.64,6.64,0,0,1,6.06,1.75,2.39,2.39,0,0,1,.79,2.22h0l-10,39.17a2.53,2.53,0,0,0-.82-2,6.74,6.74,0,0,0-6.11-1.75,2.27,2.27,0,0,0-1.67,1.31Z" transform="translate(-20.75 -46.47)"/><path class="cls-2" d="M351.9,165.28A6.71,6.71,0,0,0,358,167a2.23,2.23,0,0,0,1.72-1.48,2.36,2.36,0,0,0-.77-2.22,6.64,6.64,0,0,0-6.06-1.75,2,2,0,0,0-1.75,2.26,2.07,2.07,0,0,0,.77,1.45Z" transform="translate(-20.75 -46.47)"/><path class="cls-3" d="M348.36,145.65h0v-.28l2.88-11.26.09-.35v-.09h0c.52-1.59,2-2.89,4.32-3.54,4.89-1.38,11.84.59,15.43,4.42,1.81,1.92,2.44,3.94,2,5.66h0l-2.93,11.43a.11.11,0,0,0,0,.08v.1h0c-.48,1.64-2,3-4.37,3.66-4.89,1.38-11.84-.59-15.44-4.42C348.66,149.24,348,147.31,348.36,145.65Z" transform="translate(-20.75 -46.47)"/><path class="cls-12" d="M348.36,145.65h0v-.28l2.88-11.26.09-.35v-.09h0c.52-1.59,2-2.89,4.32-3.54,4.89-1.38,11.84.59,15.43,4.42,1.81,1.92,2.44,3.94,2,5.66h0l-2.93,11.43a.11.11,0,0,0,0,.08v.1h0c-.48,1.64-2,3-4.37,3.66-4.89,1.38-11.84-.59-15.44-4.42C348.66,149.24,348,147.31,348.36,145.65Z" transform="translate(-20.75 -46.47)"/><path class="cls-7" d="M294,386.71l4.18-16.32,42.72-167.77v-.06l.09-.35a2.32,2.32,0,0,1,1.67-1.32,6.77,6.77,0,0,1,6.13,1.75,2.53,2.53,0,0,1,.82,2h0l-.12.44L306.73,372.79l-4.17,16.34a2.22,2.22,0,0,1-1.71,1.47,6.51,6.51,0,0,1-4.63-.67,5.45,5.45,0,0,1-.57-.32,5.57,5.57,0,0,1-.88-.74A2.43,2.43,0,0,1,294,386.71Z" transform="translate(-20.75 -46.47)"/><path class="cls-8" d="M341.72,204.56a6.72,6.72,0,0,0,6.08,1.73,2.22,2.22,0,0,0,1.71-1.48,2.38,2.38,0,0,0-.77-2.22,6.62,6.62,0,0,0-6.07-1.74,2.23,2.23,0,0,0-1.74,1.5A2.46,2.46,0,0,0,341.72,204.56Z" transform="translate(-20.75 -46.47)"/><path class="cls-8" d="M294,386.71l.64-2.47a20.62,20.62,0,0,0,8.58,2.45l-.63,2.48a2.25,2.25,0,0,1-1.71,1.48,6.56,6.56,0,0,1-4.63-.68,4.92,4.92,0,0,1-1.45-1A2.41,2.41,0,0,1,294,386.71Z" transform="translate(-20.75 -46.47)"/><path class="cls-2" d="M352.33,139.88c4,4.24,11.69,6.45,17.19,4.91,2.71-.78,4.38-2.3,4.84-4.14s-.13-4.14-2.17-6.3c-4-4.27-11.66-6.46-17.16-4.92-2.76.78-4.45,2.32-4.89,4.24S350.34,137.78,352.33,139.88Z" transform="translate(-20.75 -46.47)"/><path class="cls-3" d="M352.71,138.61c4,4.24,11.69,6.45,17.19,4.9,2.71-.77,4.38-2.29,4.89-4.13v-.08l.66-2.51a.33.33,0,0,1,0-.14.85.85,0,0,1,.07-.41,4.86,4.86,0,0,0,0-.54v-.35a.09.09,0,0,0,0-.07,2,2,0,0,0,0-.35,6.25,6.25,0,0,0-.41-1.54c-.06-.15-.13-.29-.2-.43a.91.91,0,0,0-.11-.22,3.07,3.07,0,0,0-.2-.36,9.67,9.67,0,0,0-1.39-1.84c-4-4.24-11.67-6.45-17.15-4.91a8,8,0,0,0-3.68,2.06h0a3.83,3.83,0,0,0-.36.44l-.31.44c0,.1-.11.19-.15.29l-.1.19c0,.12-.11.25-.15.38v.08a2.16,2.16,0,0,1-.12.39l-.56,2.18a1.32,1.32,0,0,0-.09.3C350,134.26,350.68,136.46,352.71,138.61Z" transform="translate(-20.75 -46.47)"/><path class="cls-14" d="M353.34,137.13c4,4.24,11.69,6.44,17.18,4.91,2.72-.79,4.38-2.31,4.84-4.14s-.14-4.14-2.17-6.3c-4-4.26-11.66-6.45-17.15-4.92-2.76.78-4.45,2.33-4.89,4.24S351.35,135,353.34,137.13Z" transform="translate(-20.75 -46.47)"/><path class="cls-8" d="M384.39,186.36h0c10.85,0,19.65-9.29,19.66-20.76v-1.17c0-9.71-7.45-17.58-16.64-17.58h-6c-9.19,0-16.64,7.87-16.64,17.58v1.15C364.78,177,373.55,186.33,384.39,186.36Z" transform="translate(-20.75 -46.47)"/><path class="cls-8" d="M412,188.47h0A9.2,9.2,0,0,1,403.1,179V160.25h0a9.19,9.19,0,0,1,8.92,9.43Z" transform="translate(-20.75 -46.47)"/><path class="cls-8" d="M364.17,391.81a52,52,0,0,1-7.5,6.89,3.45,3.45,0,0,0-1,1.14c-.36.79-.9,2.71,2.45,3.94a11.84,11.84,0,0,0,10.34-1c2.76-1.81,2.88-5.61,5.48-7.77,2-1.6,4.33-2,5.87-4.14,1.09-1.46.8-3.39.24-5.79-.62-2.62-.9-4.6-1.72-4.4l.13,1.21c-1,1.72-6.33,2.23-8.69,1A96.84,96.84,0,0,1,364.17,391.81Z" transform="translate(-20.75 -46.47)"/><path class="cls-15" d="M361.84,394.27h0c.8-.78,1.58-1.58,2.33-2.43a69.89,69.89,0,0,0,4.33-6.76,10.66,10.66,0,0,0,1.85-4.92c.06-2.32-.16-6.44-.16-6.44l7.83-.55.38,8.72h0c.21,2-1.34,3.72-4.07,6.2s-6.21,8.27-8.69,9.76-4.24,1.41-5.3.67S359.18,397.14,361.84,394.27Z" transform="translate(-20.75 -46.47)"/><path class="cls-8" d="M390.34,400.15a53.75,53.75,0,0,1-7.51,6.89,3.2,3.2,0,0,0-1,1.13c-.35.78-.91,2.7,2.44,3.94a11.86,11.86,0,0,0,10.35-1c2.75-1.83,2.88-5.62,5.47-7.78,2-1.6,4.34-2,5.87-4.13,1.08-1.46.81-3.39.24-5.79-.62-2.63-.9-4.61-1.72-4.41l.13,1.21c-1,1.73-6.33,2.23-8.69,1C395.91,391.22,391.85,398.39,390.34,400.15Z" transform="translate(-20.75 -46.47)"/><path class="cls-15" d="M388,402.57h0c.79-.78,1.58-1.57,2.33-2.44a67.66,67.66,0,0,0,4.32-6.74,12,12,0,0,0,1.84-5c.15-2.07.05-6.27.05-6.27l7.83.06.19,8h0c.2,2-1.34,3.73-4.08,6.21s-6.21,8.27-8.68,9.76-4.25,1.4-5.31.66S385.34,405.44,388,402.57Z" transform="translate(-20.75 -46.47)"/><path class="cls-16" d="M404.5,247.55c6.84,15.81-1,75.76-1,75.76.2,2.56,2.34,6.54,2.6,14.39.32,10.05-1.37,47.21-1.37,47.21a9.46,9.46,0,0,1-9,.18s-8.11-50.42-9.7-63.68c-1.38-11.59-4-38.8-4-38.8l-5.46,38.73s2.81,6.47,2.94,12.3c.19,7.84-.9,44.2-.9,44.2s-3.32,1.24-9.11.34c0,0-8.25-49.22-9-58.62-.47-5.6,3.5-74.38,3.5-74.38Z" transform="translate(-20.75 -46.47)"/><path class="cls-8" d="M382.06,282.61l-2.22-12.93s-9.41-2.07-13.7-6.3c0,0,4.47,5.89,11.13,7.82l2.49,11.3-2.46,33.8Z" transform="translate(-20.75 -46.47)"/><path class="cls-1" d="M391.13,192.57h0c6,.87,9.24,2.28,11.17,8.27,1.28,3.91.92,9.65-.35,13.56l-5.21,16.16a89.36,89.36,0,0,1,7.82,17c-15.35,9.06-35.8,4.24-40.42-2.37-.2-1.4,1.05-8.19.67-15.37-.4-7.67-1.56-16.48-.42-21.21,2.12-8.8,7.93-14.55,14.47-16.4Z" transform="translate(-20.75 -46.47)"/><path class="cls-15" d="M371.2,155.23c-2.08,1.3-4.65,6.81-4.39,18.39.21,9.8,3.22,12.22,4.73,12.92s4.43.27,7.25-.23v5.89s-3.91,4.8-3.66,7.5,5.65,3.34,9.31.7a24.68,24.68,0,0,0,6-6.65V179.53s1.9,2.7,5,.5,3.24-7.62,1.42-9.57-5.73-1.33-6.45,1.36c0,0-4.52.17-10.53-3.31A17.92,17.92,0,0,1,371.2,155.23Z" transform="translate(-20.75 -46.47)"/><path class="cls-8" d="M377.17,171.16a1.24,1.24,0,0,0,1.1,1.33h0a1.24,1.24,0,0,0,1.22-1.22,1.21,1.21,0,0,0-1.11-1.29,1.2,1.2,0,0,0-1.22,1.18Z" transform="translate(-20.75 -46.47)"/><path class="cls-9" d="M376.86,179.46l-2.71.92a1.39,1.39,0,0,0,1.71,1.05l.05,0A1.6,1.6,0,0,0,376.86,179.46Z" transform="translate(-20.75 -46.47)"/><path class="cls-8" d="M367.6,167.37l2.36-1.74a1.33,1.33,0,0,0-1.9-.46l-.06,0A1.66,1.66,0,0,0,367.6,167.37Z" transform="translate(-20.75 -46.47)"/><path class="cls-8" d="M368.15,170.27a1.23,1.23,0,0,0,1.1,1.33h0a1.24,1.24,0,0,0,1.31-1.17,1.25,1.25,0,0,0-1.1-1.38,1.23,1.23,0,0,0-1.32,1.16Z" transform="translate(-20.75 -46.47)"/><polygon class="cls-9" points="352.9 123.08 352.71 130.51 349.01 129.3 352.9 123.08"/><path class="cls-9" d="M378.79,186.31c2.94-.41,9.12-2.27,10.08-4.83a6.67,6.67,0,0,1-2.15,3.26c-1.83,1.67-7.93,3.54-7.93,3.54Z" transform="translate(-20.75 -46.47)"/><path class="cls-15" d="M331.59,240.34c1.82.74,3.65.78,6.13,2.07a11.33,11.33,0,0,0,5.37,1.62c2.45.12,9.29-3,15.31-5.92,7.09-3.48,14.67-9.79,17.54-13.27,5.87-7,10.93-15.84,13.53-20.54,2.13-3.87,4.34-9.5,7.72-10.21,5.87.65,8.31,11.54,4.48,18.26s-10.66,15.51-17.93,23c-3.53,3.62-10,7.53-19.23,11.71a120.11,120.11,0,0,1-18.65,6.75c-1.86.51-3.16,1.24-6.64,2.5a15.07,15.07,0,0,1-4.4,1.16,18.91,18.91,0,0,1-5.6-.64,13.18,13.18,0,0,1-6.11-3.65,8.94,8.94,0,0,1-2.06-3.49,6.25,6.25,0,0,1,.14-4,1.62,1.62,0,0,1,.45-.67,1.72,1.72,0,0,1,1.38-.18c2.64.4,5.44,1.26,8.1,1.36,2.24.1,3.84-.16,3.56-.53s-1.61-.33-3.32-1.36-2.68-2.95-2.08-3.88S329.76,239.62,331.59,240.34Z" transform="translate(-20.75 -46.47)"/><path class="cls-15" d="M331.51,214.3s2.45-2.07,7.09-1.25c2.24.39,1.38,9.38-5.87,11.89-4.7,1.63-5.66.79-7.18,4.88,0,0-2.83-.62-2.14-5.17a26.09,26.09,0,0,1,5.75-12.7c2.08-2.59,2.21-4.76,3.23-4s.44,3,.44,3Z" transform="translate(-20.75 -46.47)"/></g></svg>