<svg id="Layer_1" data-name="Layer 1" xmlns="http://www.w3.org/2000/svg" viewBox="0 0 500 372.56"><defs><style>.cls-1{fill:#ebebeb;}.cls-2{fill:#e6e6e6;}.cls-3{fill:#f0f0f0;}.cls-4{fill:#f5f5f5;}.cls-5{fill:#fff;}.cls-6{fill:#fafafa;}.cls-7{fill:#ff8b7b;}.cls-8{opacity:0.2;}.cls-11,.cls-12,.cls-15,.cls-17,.cls-8{isolation:isolate;}.cls-9{fill:#263238;}.cls-10{fill:#1dbcc6;}.cls-11,.cls-19{fill:#a02724;}.cls-11{opacity:0.6;}.cls-12,.cls-16{opacity:0.3;}.cls-13,.cls-17{fill:#ff7043;}.cls-14{fill:#ff5652;}.cls-15{opacity:0.1;}.cls-17{opacity:0.4;}.cls-18{fill:#b55b52;}</style></defs><title>dealorange</title><g id="Character_Male" data-name="Character Male"><rect class="cls-1" y="327.4" width="500" height="0.25"/><rect class="cls-1" x="416.78" y="343.49" width="33.12" height="0.25"/><rect class="cls-1" x="322.53" y="346.21" width="8.69" height="0.25"/><rect class="cls-1" x="396.59" y="334.21" width="19.19" height="0.25"/><rect class="cls-1" x="52.46" y="335.89" width="43.19" height="0.25"/><rect class="cls-1" x="104.56" y="335.89" width="6.33" height="0.25"/><rect class="cls-1" x="131.47" y="340.11" width="93.68" height="0.25"/><path class="cls-1" d="M237,282.85H43.91a5.71,5.71,0,0,1-5.7-5.71V5.71A5.71,5.71,0,0,1,43.91.05H237a5.71,5.71,0,0,1,5.71,5.71h0V277.14A5.71,5.71,0,0,1,237,282.85ZM43.91.25a5.46,5.46,0,0,0-5.45,5.46V277.14a5.46,5.46,0,0,0,5.45,5.46H237a5.48,5.48,0,0,0,5.46-5.46V5.71A5.48,5.48,0,0,0,237,.25Z" transform="translate(0 -0.05)"/><path class="cls-1" d="M453.31,282.85H260.21a5.73,5.73,0,0,1-5.71-5.71V5.71A5.72,5.72,0,0,1,260.21.05h193.1A5.71,5.71,0,0,1,459,5.71V277.14A5.7,5.7,0,0,1,453.31,282.85ZM260.21.25a5.48,5.48,0,0,0-5.46,5.46V277.14a5.48,5.48,0,0,0,5.46,5.46h193.1a5.48,5.48,0,0,0,5.46-5.46V5.71A5.48,5.48,0,0,0,453.31.25Z" transform="translate(0 -0.05)"/><rect class="cls-2" x="358.99" y="75.01" width="14.17" height="44.11"/><polygon class="cls-3" points="411.57 119.12 364.55 119.12 357.45 67.49 404.47 67.49 411.57 119.12"/><polygon class="cls-4" points="416.66 119.12 368.1 119.12 361 67.49 409.56 67.49 416.66 119.12"/><polygon class="cls-5" points="371.61 115.05 365.63 71.56 406.05 71.56 412.04 115.05 371.61 115.05"/><path class="cls-4" d="M379.6,101.93l-2.25-16.32a3,3,0,0,1,2.5-3.42,2.81,2.81,0,0,1,.5,0H395a3,3,0,0,1,3,2.63l2.24,16.33a3,3,0,0,1-2.52,3.42,3.87,3.87,0,0,1-.48,0H382.61A3,3,0,0,1,379.6,101.93Z" transform="translate(0 -0.05)"/><rect class="cls-2" x="73.16" y="26.68" width="211.79" height="130.65"/><rect class="cls-3" x="75.7" y="26.68" width="214.69" height="130.65"/><rect class="cls-2" x="73.16" y="157.33" width="211.79" height="10.11"/><rect class="cls-3" x="84.76" y="157.33" width="214.69" height="10.11"/><rect class="cls-6" x="83.32" y="34.3" width="199.45" height="115.42"/><polygon class="cls-5" points="97.96 149.72 142.67 34.3 163.77 34.3 119.06 149.72 97.96 149.72"/><polygon class="cls-5" points="123.6 149.72 168.31 34.3 176.53 34.3 131.82 149.72 123.6 149.72"/><polygon class="cls-5" points="201.82 149.72 246.53 34.3 254.75 34.3 210.05 149.72 201.82 149.72"/><rect class="cls-2" x="281.79" y="34.29" width="0.97" height="115.42"/><rect class="cls-2" x="400.66" y="119.12" width="44.84" height="208.28"/><polygon class="cls-3" points="440.99 327.4 445.5 327.4 445.5 314.57 436.26 314.57 440.99 327.4"/><rect class="cls-2" x="322.09" y="119.12" width="44.84" height="208.28"/><rect class="cls-3" x="362.99" y="119.12" width="82.51" height="200.41"/><polygon class="cls-3" points="367.5 327.4 362.99 327.4 362.99 314.57 372.23 314.57 367.5 327.4"/><rect class="cls-2" x="366.49" y="122.79" width="75.51" height="94.54"/><path class="cls-3" d="M412.42,130.2H396.07a25.87,25.87,0,0,1-18.78-8.08H431.2A25.86,25.86,0,0,1,412.42,130.2Z" transform="translate(0 -0.05)"/><rect class="cls-2" x="366.49" y="221.16" width="75.51" height="94.54"/><path class="cls-3" d="M412.42,228.57H396.07a25.87,25.87,0,0,1-18.78-8.08H431.2A25.86,25.86,0,0,1,412.42,228.57Z" transform="translate(0 -0.05)"/><polygon class="cls-2" points="129.5 184.89 204.12 184.89 214.94 228.95 140.31 228.95 129.5 184.89"/><polygon class="cls-2" points="140.31 228.95 140.62 231.39 215.24 231.39 214.94 228.95 140.31 228.95"/><polygon class="cls-3" points="131.8 184.89 206.42 184.89 217.24 228.95 142.61 228.95 131.8 184.89"/><polygon class="cls-5" points="144.19 226.94 134.36 186.9 204.84 186.9 214.67 226.94 144.19 226.94"/><polygon class="cls-3" points="162.06 228.95 162.36 231.39 244.53 231.39 244.23 228.95 162.06 228.95"/><rect class="cls-2" x="254.34" y="231.39" width="8.94" height="96"/><rect class="cls-3" x="259.9" y="231.39" width="6.21" height="96"/><rect class="cls-3" x="152.83" y="231.39" width="115.21" height="10.99"/><rect class="cls-2" x="139.88" y="242.38" width="8.94" height="85.01"/><rect class="cls-3" x="145.43" y="242.38" width="6.21" height="85.01"/><rect class="cls-2" x="83.29" y="242.38" width="8.94" height="85.01"/><rect class="cls-3" x="88.85" y="242.38" width="6.21" height="85.01"/><rect class="cls-2" x="197.76" y="242.38" width="8.94" height="85.01"/><rect class="cls-3" x="203.31" y="242.38" width="6.21" height="85.01"/><rect class="cls-2" x="83.29" y="231.39" width="69.53" height="10.99"/><path class="cls-3" d="M292.34,327.45h-2.17L284,296.81l-1.09-5.37-6.84-33.39h-26L236,327.45h-2.2l14.36-70.68a1,1,0,0,1,1-.85H277a1,1,0,0,1,1,.85l6,29.32,1,5.36Z" transform="translate(0 -0.05)"/><path class="cls-3" d="M334.09,327.45h-2.18l-14.1-69.4h-26L285,291.45l-1,5.36-6.23,30.64H275.6l7.31-36L284,286.1l6-29.32a1.07,1.07,0,0,1,1-.85h27.75a1,1,0,0,1,1,.85Z" transform="translate(0 -0.05)"/><path class="cls-3" d="M270,257h47.78c9.12,0,14.18-6.2,16.76-16.42l1.26-5.84a12,12,0,0,0-8.86-14.48,12.23,12.23,0,0,0-2.83-.33h-30c-6.2,0-7.84,1.48-12.13,10.82S270,257,270,257Z" transform="translate(0 -0.05)"/><path class="cls-3" d="M296.05,257H245.13a2.39,2.39,0,0,1-2.39-2.39h0v-.22a6.54,6.54,0,0,1,6.54-6.54h46.77V257h0Z" transform="translate(0 -0.05)"/><ellipse id="_Path_" data-name=" Path " class="cls-4" cx="250" cy="361.24" rx="193.89" ry="11.32"/><polygon class="cls-7" points="203.03 329.25 196.63 333.37 185.03 319.88 191.43 315.76 203.03 329.25"/><polygon class="cls-8" points="191.44 315.76 185.03 319.88 191.02 326.83 197.42 322.71 191.44 315.76"/><polygon class="cls-7" points="154.12 351.25 146.76 351.97 139.11 334.47 146.47 333.75 154.12 351.25"/><polygon class="cls-8" points="139.12 334.47 143.06 343.5 150.73 343.5 146.47 333.76 139.12 334.47"/><path class="cls-9" d="M98.23,115.05c-3.7.33-3.8-6-10.3-3-8.26,3.76-5.47,9.59-11.92,9.35s-10.77,4.79-9.33,8.54,3.67,7.3-.89,8.81-7.66,2.84-7,6.62,3.89,5.3-1.55,7.71-4.89,12.83.44,12.84.22,5.2,5,10.48,12.05,6,15.08,3.4,6.41-4.75,12.11-.75,15.35,5,14.91-1.34-6-10.5-.76-13.8,12-4.93,9.88-11.35c-1.35-4-5.43-7.48-2.14-10.47,5.35-4.86,5.38-15.86-1.18-18.65C106.77,121.83,110.44,114,98.23,115.05Z" transform="translate(0 -0.05)"/><path class="cls-7" d="M91.11,164.47c-.18,3-.56,5.67-1,8.48a81.29,81.29,0,0,1-1.81,8.3,61.44,61.44,0,0,1-2.71,8.16c-.54,1.34-1.16,2.67-1.82,4-.33.66-.69,1.31-1.06,2-.17.33-.38.65-.57,1l-.29.47a8.19,8.19,0,0,1-.66.89,5.8,5.8,0,0,1-2,1.47,6.2,6.2,0,0,1-2.16.55,8.68,8.68,0,0,1-3.24-.44,19.54,19.54,0,0,1-4.4-2.16,54.63,54.63,0,0,1-6.83-5.29,114.78,114.78,0,0,1-11.47-12.07l2.84-2.73c2,1.76,4,3.55,6.09,5.25s4.13,3.41,6.26,5a53.17,53.17,0,0,0,6.4,4.22,12.89,12.89,0,0,0,3,1.23,1.87,1.87,0,0,0,.78.07h-.2a1.45,1.45,0,0,0-.36.25l-.05.05h0l.22-.41c.14-.27.3-.53.43-.81q.42-.83.81-1.68c.5-1.14,1-2.3,1.4-3.51.84-2.4,1.54-4.88,2.16-7.4s1.09-5.09,1.51-7.68.74-5.24,1-7.7Z" transform="translate(0 -0.05)"/><path class="cls-10" d="M96.92,165.41c-.4,2.42-2.41,7-4,10.4-1.18,2.46-2.14,4.31-2.14,4.31l-1.4-.62-11.59-5.16c.88-6.25,2.31-13,9.2-16.07C91.29,156.37,97.63,161.05,96.92,165.41Z" transform="translate(0 -0.05)"/><path class="cls-11" d="M96.92,165.41c-.4,2.42-2.41,7-4,10.4-1.18,2.46-2.14,4.31-2.14,4.31l-1.4-.62-11.59-5.16c.88-6.25,2.31-13,9.2-16.07C91.29,156.37,97.63,161.05,96.92,165.41Z" transform="translate(0 -0.05)"/><path class="cls-12" d="M92.89,175.81c-1.18,2.46-2.14,4.31-2.14,4.31l-1.4-.62c.19-2.47.68-6.36,2-8.11A11.07,11.07,0,0,1,92.89,175.81Z" transform="translate(0 -0.05)"/><path class="cls-7" d="M54.37,179.34l.92-6.73-7.55,2.44s1.2,4.07,3.89,5.74Z" transform="translate(0 -0.05)"/><polygon class="cls-7" points="51.87 166.81 46.6 169.7 47.74 175.04 55.29 172.56 51.87 166.81"/><path class="cls-9" d="M194.27,331.4l6.95-5a.61.61,0,0,1,.8.07l4.73,4.93a1.22,1.22,0,0,1-.09,1.72l-.11.09c-2.45,1.7-3.72,2.39-6.78,4.58-1.88,1.35-5.84,4.61-8.44,6.47s-4.57-.6-3.66-1.61c4.1-4.52,5.19-7.6,5.84-10.14A2,2,0,0,1,194.27,331.4Z" transform="translate(0 -0.05)"/><path class="cls-9" d="M145.79,349.75h9a.76.76,0,0,1,.71.55l2,7.14a1.12,1.12,0,0,1-.77,1.39,1.19,1.19,0,0,1-.33,0H135.6c-3.3,0-4-3.34-2.63-3.64,6.12-1.35,9.65-3.22,11.54-5A1.84,1.84,0,0,1,145.79,349.75Z" transform="translate(0 -0.05)"/><path class="cls-10" d="M132.05,192.51l-29.47,9.32c-20.4-40.38-17.49-42.52-17.49-42.52s4.71-2.69,9.61-4.93l2.23-1a97.62,97.62,0,0,1,13.38-4.24c.67-.18,1.34-.34,2-.5a95.17,95.17,0,0,1,11-1.81c.44,5.59.88,10.32,1.36,14.43.62,5.36,1.29,9.65,2,13.36A116.19,116.19,0,0,0,132.05,192.51Z" transform="translate(0 -0.05)"/><path class="cls-11" d="M132.05,192.51l-29.47,9.32c-20.4-40.38-17.49-42.52-17.49-42.52s4.71-2.69,9.61-4.93l2.23-1a97.62,97.62,0,0,1,13.38-4.24c.67-.18,1.34-.34,2-.5a95.17,95.17,0,0,1,11-1.81c.44,5.59.88,10.32,1.36,14.43.62,5.36,1.29,9.65,2,13.36A116.19,116.19,0,0,0,132.05,192.51Z" transform="translate(0 -0.05)"/><path class="cls-12" d="M126.75,174.64c-2.83-4-5.54-13.31-4.84-16.8l2.8,3.44C125.33,166.64,126,170.93,126.75,174.64Z" transform="translate(0 -0.05)"/><path class="cls-5" d="M103.63,166.85s7.43-1.61,9.82,1.62c3.28-3.23,2.12-15.85.54-20.35a19.55,19.55,0,0,0-3.67,1l-5.25,8.12Z" transform="translate(0 -0.05)"/><path class="cls-5" d="M103.63,166.85s-5,1.12-5.53,5.21c-7-5.21-6.51-12.84-4.93-17.34a17.86,17.86,0,0,1,3.76-1.32l5.25,5.78Z" transform="translate(0 -0.05)"/><path class="cls-7" d="M105.34,140.64c1,3.68,2.52,7.32,5,8.52,0,0,2.31,6.62-6.69,17.69C94.23,160.14,97,153.4,97,153.4c4.44-2.67,3.19-6.19,1.3-9.27l2.61-4.19a2.48,2.48,0,0,1,4.48.7Z" transform="translate(0 -0.05)"/><path class="cls-8" d="M105.34,140.64a2.47,2.47,0,0,0-3-1.79,2.45,2.45,0,0,0-1.5,1.09l-.84,1.34h0c.07.89.11,1.62.1,2-.08,2.6,3.57,2.48,6.54,1.23A26.22,26.22,0,0,1,105.34,140.64Z" transform="translate(0 -0.05)"/><path class="cls-7" d="M87.25,130.59c2.6,7.09,3.54,10.15,8.3,12.77,7.15,3.95,15.29-.79,14.87-8.52-.38-7-4.56-17.39-12.49-18.16a10.3,10.3,0,0,0-10.68,13.91Z" transform="translate(0 -0.05)"/><path class="cls-9" d="M105.64,119.93c-2.44-2.35-5-5.08-9.9-4.55-5.42.59-7.56,3.87-7.56,3.87l-4.66,10.19s2.89,13.12,7.66,7c2.75-3.54,2.82-8.89,1.82-12.89a31.8,31.8,0,0,0,5.52-1.28c2.2.82,4.67.82,6.5-.86.4-.37.69-.66.9-.89l.17-.19C106.63,119.64,106.18,119.71,105.64,119.93Zm-6.3,2.12a51.73,51.73,0,0,1,5.2-1.39A5.12,5.12,0,0,1,99.34,122.05Z" transform="translate(0 -0.05)"/><path class="cls-7" d="M87.61,137.8A5.53,5.53,0,0,0,91,140.33c1.88.47,2.77-1.22,2.2-3-.51-1.57-2.1-3.71-4-3.41a2.49,2.49,0,0,0-2,2.9A2.36,2.36,0,0,0,87.61,137.8Z" transform="translate(0 -0.05)"/><path class="cls-13" d="M102.58,201.84s-1,60.39,6.89,82.21c7.6,20.92,30.27,56.88,30.27,56.88l13.14-.33S132,295.05,128.59,277.05c-5.68-29.87-4.43-82-4.43-82Z" transform="translate(0 -0.05)"/><path class="cls-12" d="M114.38,207.05l3.53-10,6.25-2s-.57,23.73.8,48.34C119.29,232.47,114.38,212.47,114.38,207.05Z" transform="translate(0 -0.05)"/><polygon class="cls-9" points="137.89 341.56 154.12 341.15 153.18 336.16 135.46 337 137.89 341.56"/><path class="cls-13" d="M109,199.89s20.5,46.89,33.75,73.58c10.7,21.56,44,50.48,44,50.48l9.13-6.33s-25.06-34.26-32.45-48.88C139.78,222,145.61,202.68,132,192.51Z" transform="translate(0 -0.05)"/><polygon class="cls-9" points="187.29 326.92 198.01 319.29 195.58 314.61 183.8 323.52 187.29 326.92"/><path class="cls-9" d="M132,190.64l2.16,2.22c.17.17,0,.46-.35.57L102.9,203.2a.51.51,0,0,1-.59-.13l-1.1-2.56c-.08-.17.1-.4.39-.49l29.85-9.45A.55.55,0,0,1,132,190.64Z" transform="translate(0 -0.05)"/><path class="cls-13" d="M129,195.25l.8-.25c.16,0,.26-.18.21-.27l-1.45-3.31a.31.31,0,0,0-.37-.09l-.8.26c-.16,0-.26.17-.21.27l1.46,3.3C128.67,195.26,128.83,195.3,129,195.25Z" transform="translate(0 -0.05)"/><path class="cls-13" d="M105.19,202.78l.8-.25c.16-.05.25-.17.21-.27L104.74,199c0-.1-.21-.13-.37-.08l-.8.25c-.15,0-.25.17-.21.27l1.46,3.31A.32.32,0,0,0,105.19,202.78Z" transform="translate(0 -0.05)"/><path class="cls-13" d="M117.09,199.05l.8-.25c.16-.05.26-.17.21-.27l-1.46-3.31c0-.09-.2-.13-.36-.08l-.8.25a.21.21,0,0,0-.21.27l1.45,3.31C116.77,199.05,116.93,199.05,117.09,199.05Z" transform="translate(0 -0.05)"/><path class="cls-9" d="M99.69,129.05c.18.59.63,1,1,.86a1,1,0,0,0,.37-1.27c-.18-.58-.62-1-1-.86S99.52,128.44,99.69,129.05Z" transform="translate(0 -0.05)"/><path class="cls-9" d="M106.34,127.05c.18.59.63,1,1,.86s.55-.68.38-1.27-.63-1-1-.86S106.17,126.46,106.34,127.05Z" transform="translate(0 -0.05)"/><path class="cls-9" d="M106.56,125.86l1.29-.83S107.46,126.35,106.56,125.86Z" transform="translate(0 -0.05)"/><path class="cls-14" d="M104.68,128.58a16.75,16.75,0,0,0,3.22,3.13,2.66,2.66,0,0,1-2,1Z" transform="translate(0 -0.05)"/><path class="cls-9" d="M103.92,136a.18.18,0,0,0,.06-.19.19.19,0,0,0-.22-.13,4.84,4.84,0,0,1-4.34-.69.18.18,0,1,0-.24.28,5.19,5.19,0,0,0,4.68.76Z" transform="translate(0 -0.05)"/><path class="cls-9" d="M97.18,127.42a.34.34,0,0,0,.1-.16,2.86,2.86,0,0,1,1.87-1.81.36.36,0,0,0,.32-.4.36.36,0,0,0-.39-.32l-.08,0a3.53,3.53,0,0,0-2.39,2.3.37.37,0,0,0,.2.47h0A.4.4,0,0,0,97.18,127.42Z" transform="translate(0 -0.05)"/><path class="cls-9" d="M108.37,123.28v-.07a.38.38,0,0,0-.29-.42,3.62,3.62,0,0,0-3.18.86.36.36,0,1,0,.52.5h0a2.85,2.85,0,0,1,2.52-.65A.37.37,0,0,0,108.37,123.28Z" transform="translate(0 -0.05)"/><path class="cls-7" d="M127.83,153.91c1.19.89,2.19,1.72,3.23,2.62s2,1.8,3,2.74c1.95,1.88,3.83,3.84,5.61,5.9a66,66,0,0,1,5,6.53c.4.56.75,1.17,1.12,1.75s.74,1.17,1.07,1.79.68,1.17,1,1.86l.53,1.11.43,1.12a26.55,26.55,0,0,1,1.28,8.8,48.76,48.76,0,0,1-.89,8.26,73.16,73.16,0,0,1-2,7.84,78.77,78.77,0,0,1-2.82,7.55l-3.62-1.34c.62-2.4,1.21-4.92,1.65-7.41a69.78,69.78,0,0,0,1.07-7.46,48.12,48.12,0,0,0,.17-7.3,28.58,28.58,0,0,0-.42-3.44,19.44,19.44,0,0,0-.91-3.08l-.31-.69-.34-.63c-.27-.46-.64-1-1-1.51s-.66-1-1-1.51-.69-1-1.07-1.48c-1.46-2-3.11-3.82-4.75-5.67s-3.44-3.59-5.27-5.29c-.9-.86-1.83-1.7-2.76-2.52s-1.93-1.64-2.79-2.34Z" transform="translate(0 -0.05)"/><path class="cls-7" d="M141.92,208.05l-5.48,4,7,3.7s2.09-3.7,1.42-6.79Z" transform="translate(0 -0.05)"/><polygon class="cls-7" points="134.71 218.48 140.44 220.26 143.49 215.72 136.44 212.02 134.71 218.48"/><path class="cls-10" d="M123.35,146.85c3.83-.17,11.36,9.24,11.36,9.24l-7.82,11.06s-8.78-7-9.46-11.87C116.86,151.13,118.47,147.05,123.35,146.85Z" transform="translate(0 -0.05)"/><path class="cls-11" d="M123.35,146.85c3.83-.17,11.36,9.24,11.36,9.24l-7.82,11.06s-8.78-7-9.46-11.87C116.86,151.13,118.47,147.05,123.35,146.85Z" transform="translate(0 -0.05)"/><path class="cls-10" d="M191.64,334.53h-.12a1,1,0,0,1-.8-.61.62.62,0,0,1,0-.62c.49-.84,3.24-1,3.55-1a.19.19,0,0,1,.17.1.18.18,0,0,1,0,.2C193.77,333.34,192.58,334.53,191.64,334.53Zm2.2-1.83c-1.1.08-2.56.34-2.81.78a.22.22,0,0,0,0,.27.68.68,0,0,0,.52.42c.53.06,1.37-.49,2.29-1.47Z" transform="translate(0 -0.05)"/><path class="cls-10" d="M194.08,332.68c-.92,0-2.73-.51-3.07-1.25a.65.65,0,0,1,.2-.76,1,1,0,0,1,.77-.25c1.09.12,2.38,1.89,2.43,2a.19.19,0,0,1,0,.18.21.21,0,0,1-.14.1Zm-2.22-1.9a.59.59,0,0,0-.4.16c-.17.15-.15.27-.12.35a3.67,3.67,0,0,0,2.57,1c-.46-.57-1.32-1.47-2-1.54Z" transform="translate(0 -0.05)"/><path class="cls-13" d="M141.78,351.24a3,3,0,0,1-1.76-.42,1.1,1.1,0,0,1-.46-.87.53.53,0,0,1,.23-.49c.82-.55,3.89.84,4.5,1.13a.17.17,0,0,1,.1.18.18.18,0,0,1-.14.16A12.1,12.1,0,0,1,141.78,351.24Zm-1.43-1.56a.64.64,0,0,0-.36.08.18.18,0,0,0-.07.17.79.79,0,0,0,.32.6c.53.4,1.78.46,3.39.16A10.77,10.77,0,0,0,140.35,349.68Z" transform="translate(0 -0.05)"/><path class="cls-13" d="M144.21,350.93h-.06c-1-.42-3.08-2.07-3-2.92,0-.18.15-.42.61-.47,1.8-.22,2.56,3,2.59,3.18a.2.2,0,0,1-.06.18A.11.11,0,0,1,144.21,350.93ZM142,347.88h-.12c-.19,0-.29.08-.31.17-.06.49,1.36,1.8,2.4,2.37C143.7,349.63,143.05,347.88,142,347.88Z" transform="translate(0 -0.05)"/><path class="cls-9" d="M99.91,127.84l1.29-.83S100.81,128.33,99.91,127.84Z" transform="translate(0 -0.05)"/><path d="M288.63,54.72H143.3A11.38,11.38,0,0,0,131.85,66c0,.24,0,.47,0,.71L145.5,349.29a12.77,12.77,0,0,0,12.58,12H303.41A11.37,11.37,0,0,0,314.85,350c0-.24,0-.48,0-.72L301.21,66.72A12.77,12.77,0,0,0,288.63,54.72Z" transform="translate(0 -0.05)"/><path class="cls-9" d="M294,54.72H148.63A11.37,11.37,0,0,0,137.19,66c0,.24,0,.48,0,.72l13.62,282.57a12.77,12.77,0,0,0,12.58,12H308.74A11.37,11.37,0,0,0,320.18,350c0-.24,0-.48,0-.72L306.54,66.72A12.77,12.77,0,0,0,294,54.72Z" transform="translate(0 -0.05)"/><path class="cls-13" d="M163,353.29a4.31,4.31,0,0,1-4.19-4L145.21,66.72a3.82,3.82,0,0,1,3.64-4h145.5a4.29,4.29,0,0,1,4.19,4l13.62,282.57a3.82,3.82,0,0,1-3.64,4H163Z" transform="translate(0 -0.05)"/><path class="cls-15" d="M162.93,351.29a2.18,2.18,0,0,1-2.1-2L147.21,66.72a1.93,1.93,0,0,1,1.86-2H294.44a2.17,2.17,0,0,1,2.1,2l13.62,282.57a1.93,1.93,0,0,1-1.86,2H162.93Z" transform="translate(0 -0.05)"/><g class="cls-16"><path class="cls-6" d="M206.79,335.05H178a3.12,3.12,0,0,1-3.08-2.94l-2.1-43.71a2.8,2.8,0,0,1,2.61-3h29.06a3.1,3.1,0,0,1,3.07,2.93l2.07,43.72a2.82,2.82,0,0,1-2.63,3Zm-31.18-48.63a1.88,1.88,0,0,0-1.34.56,1.91,1.91,0,0,0-.5,1.37l2.11,43.7a2.11,2.11,0,0,0,2.08,2h28.83a1.82,1.82,0,0,0,1.84-1.82v-.12l-2.11-43.71a2.09,2.09,0,0,0-2.07-2Z" transform="translate(0 -0.05)"/><path class="cls-6" d="M204.07,296.57H177a.5.5,0,0,1,0-1h27.1a.5.5,0,0,1,0,1Z" transform="translate(0 -0.05)"/><path class="cls-6" d="M204.35,302.22H177.24a.52.52,0,0,1-.5-.5.5.5,0,0,1,.5-.5h27.11a.5.5,0,0,1,.5.5A.52.52,0,0,1,204.35,302.22Z" transform="translate(0 -0.05)"/><path class="cls-6" d="M204.62,307.87H177.51a.52.52,0,0,1-.5-.5.5.5,0,0,1,.5-.5h27.11a.5.5,0,0,1,0,1Z" transform="translate(0 -0.05)"/><path class="cls-6" d="M204.89,313.52h-27.1a.5.5,0,1,1,0-1h27.1a.5.5,0,0,1,0,1Z" transform="translate(0 -0.05)"/><path class="cls-6" d="M205.16,319.17h-27.1a.5.5,0,0,1,0-1h27.1a.5.5,0,1,1,0,1Z" transform="translate(0 -0.05)"/><path class="cls-6" d="M199.88,324.82H178.33a.5.5,0,1,1,0-1h21.55a.5.5,0,0,1,.5.5A.52.52,0,0,1,199.88,324.82Z" transform="translate(0 -0.05)"/></g><g class="cls-16"><path class="cls-6" d="M224.94,174.68l-19.77,3.16a22.92,22.92,0,0,0-3-5.27,14.08,14.08,0,0,0-4.13-3l.74,15.5q16.49,4.34,22.19,9.16a22.26,22.26,0,0,1,8,16.45,21.83,21.83,0,0,1-2,10.74,24.32,24.32,0,0,1-6.25,8.15,24.93,24.93,0,0,1-8.37,4.74,41.34,41.34,0,0,1-11.1,1.74l.13,2.73a3.69,3.69,0,0,1-3.46,3.9h-.26a4.15,4.15,0,0,1-4.1-3.91l-.13-2.73a50.62,50.62,0,0,1-12.89-2.54,27.61,27.61,0,0,1-8.71-5.11,27,27,0,0,1-5.86-7.05,34.14,34.14,0,0,1-3.33-9.13l21.51-2.51q1.22,5.29,3,7.65a14.48,14.48,0,0,0,5.58,4.18l-.91-18.92a105.73,105.73,0,0,1-15.6-5.2,21.91,21.91,0,0,1-8.18-7,21.15,21.15,0,0,1-3.89-11.82,20.24,20.24,0,0,1,5.9-15.94q6.36-6.41,19.5-7.1l-.07-1.39a3.69,3.69,0,0,1,3.46-3.9h.26a4.15,4.15,0,0,1,4.1,3.91l.07,1.39q12,.75,18.61,5.68A24.27,24.27,0,0,1,224.94,174.68Zm-34.7-5.35a9.48,9.48,0,0,0-4.63,2.79,5.88,5.88,0,0,0-1.15,3.93,6.82,6.82,0,0,0,1.56,4.12,10.79,10.79,0,0,0,4.89,2.93Zm10.37,52.72q4.5-1,6.5-3.36a7.27,7.27,0,0,0,1.86-5.24,7.42,7.42,0,0,0-2-4.65c-1.26-1.41-3.66-2.73-7.18-3.94Z" transform="translate(0 -0.05)"/></g><path class="cls-8" d="M277.2,91.61h-99l9.65,200.11a32.4,32.4,0,0,0,32,30.54h99l-9.64-200.11A32.38,32.38,0,0,0,277.2,91.61Z" transform="translate(0 -0.05)"/><path class="cls-6" d="M301.45,91.61H178.23a32.39,32.39,0,0,1,32,30.54l7.87,162.9a32.4,32.4,0,0,0,32,30.54h62.13a28.84,28.84,0,0,0,29.14-28.54c0-.67,0-1.33-.05-2l-7.86-162.9A32.38,32.38,0,0,0,301.45,91.61Z" transform="translate(0 -0.05)"/><path class="cls-2" d="M279.18,285.05a28.82,28.82,0,0,1-27.07,30.49c-.66,0-1.33.06-2,0H373.33A28.85,28.85,0,0,0,402.45,287c0-.66,0-1.32-.05-2Z" transform="translate(0 -0.05)"/><path class="cls-13" d="M318.8,192.72H231.72a2.41,2.41,0,0,1-2.38-2.27h0a2.15,2.15,0,0,1,2-2.27h87.21a2.41,2.41,0,0,1,2.42,2.27h0a2.15,2.15,0,0,1-2,2.27Z" transform="translate(0 -0.05)"/><path class="cls-13" d="M319.48,206.89H232.4a2.41,2.41,0,0,1-2.38-2.27h0a2.15,2.15,0,0,1,2-2.27h87.22a2.41,2.41,0,0,1,2.37,2.27h0a2.15,2.15,0,0,1-2,2.27Z" transform="translate(0 -0.05)"/><path class="cls-13" d="M320.17,221.05H233.08a2.41,2.41,0,0,1-2.38-2.27h0a2.15,2.15,0,0,1,2-2.27H320a2.41,2.41,0,0,1,2.38,2.27h0a2.15,2.15,0,0,1-2,2.27Z" transform="translate(0 -0.05)"/><path class="cls-13" d="M320.85,235.24H233.77a2.43,2.43,0,0,1-2.38-2.27h0a2.15,2.15,0,0,1,2-2.27h87.21A2.41,2.41,0,0,1,323,233h0a2.15,2.15,0,0,1-2,2.27Z" transform="translate(0 -0.05)"/><path class="cls-13" d="M286.91,249.41H234.45a2.41,2.41,0,0,1-2.38-2.27h0a2.15,2.15,0,0,1,2-2.27h52.59a2.41,2.41,0,0,1,2.38,2.27h0a2.15,2.15,0,0,1-2,2.27Z" transform="translate(0 -0.05)"/><ellipse class="cls-13" cx="272.9" cy="143.76" rx="26.71" ry="28.03" transform="translate(-20.6 238.57) rotate(-45.69)"/><path class="cls-5" d="M295.48,143.75a21.87,21.87,0,0,1-2.21,10.76A21.27,21.27,0,0,1,274,166.33a23.85,23.85,0,0,1-20.42-11.82,23.26,23.26,0,0,1-3.25-10.76,21.31,21.31,0,0,1,20-22.54c.49,0,1,0,1.47,0A24,24,0,0,1,295.48,143.75Z" transform="translate(0 -0.05)"/><path class="cls-17" d="M293.27,154.51A21.27,21.27,0,0,1,274,166.33a23.85,23.85,0,0,1-20.42-11.82,34.22,34.22,0,0,1,19.56-6A37,37,0,0,1,293.27,154.51Z" transform="translate(0 -0.05)"/><ellipse class="cls-17" cx="272.52" cy="136.01" rx="9.82" ry="10.3" transform="translate(-15.17 235.96) rotate(-45.69)"/><polygon class="cls-18" points="356.76 353.73 349.42 353.73 348.68 336.72 356.03 336.72 356.76 353.73"/><polygon class="cls-8" points="348.69 336.73 349.06 345.5 356.41 345.5 356.03 336.73 348.69 336.73"/><polygon class="cls-18" points="419.29 333.8 412.31 336.08 403.52 321.04 410.51 318.77 419.29 333.8"/><polygon class="cls-8" points="410.51 318.77 403.52 321.05 408.06 328.8 415.04 326.52 410.51 318.77"/><path class="cls-18" d="M381.6,108c.91,1.11,1.68,2.1,2.47,3.19s1.54,2.13,2.29,3.21c1.48,2.17,2.9,4.39,4.23,6.68a75.18,75.18,0,0,1,6.73,14.71l.17.5.08.26.11.41.2.82.11.75a14.47,14.47,0,0,1,.11,2.71,26.61,26.61,0,0,1-.66,4.53,52.36,52.36,0,0,1-2.51,7.82,91,91,0,0,1-7.16,14l-5-2.39c1.5-4.69,3-9.49,4.1-14.16a56.87,56.87,0,0,0,1.3-6.84,17.68,17.68,0,0,0,.11-3,6.28,6.28,0,0,0-.14-1.06l-.05-.18,0-.1h0l-.08-.19-.16-.39-.67-1.57-.75-1.56c-.5-1-1.05-2.08-1.6-3.12-1.14-2.06-2.37-4.11-3.65-6.15s-2.64-4-4-6-2.85-4-4.2-5.81Z" transform="translate(0 -0.05)"/><path class="cls-18" d="M383.23,163.93l-2.87,6.35h8.21s1.31-4.82-1.67-6.77Z" transform="translate(0 -0.05)"/><polygon class="cls-18" points="381.32 177.37 388.94 175.89 388.57 170.23 380.36 170.23 381.32 177.37"/><path class="cls-9" d="M345.22,75.74c0,.6-.31,1.08-.7,1.08s-.7-.48-.7-1.08.32-1.07.7-1.07S345.22,75.15,345.22,75.74Z" transform="translate(0 -0.05)"/><path class="cls-19" d="M345,76.82a21,21,0,0,1-2.83,5.06,3.43,3.43,0,0,0,2.83.54Z" transform="translate(0 -0.05)"/><path class="cls-9" d="M347.32,72.46a.31.31,0,0,1-.2-.07,2.8,2.8,0,0,0-2.47-.45.35.35,0,0,1-.25-.65,3.44,3.44,0,0,1,3.13.54.36.36,0,0,1,.08.49A.37.37,0,0,1,347.32,72.46Z" transform="translate(0 -0.05)"/><path class="cls-18" d="M364.35,82.57C363.29,88,362.24,97.8,366,101.38c0,0-1.47,5.45-11.45,5.45-11,0-5.25-5.45-5.25-5.45,6-1.43,5.84-5.87,4.79-10Z" transform="translate(0 -0.05)"/><path class="cls-9" d="M367.44,103.25c.79-1.72,1.66-3.7-.14-4.32-2-.68-12.76-1.37-16.49-.09a3.85,3.85,0,0,0-2.68,4.73l0,.05Z" transform="translate(0 -0.05)"/><path class="cls-13" d="M410.8,337.88c-.54.52-1.15.94-1.61.87a.71.71,0,0,1-.57-.6.8.8,0,0,1,.12-.67c.6-.93,3-1.33,3.13-1.34a.18.18,0,0,1,.17.07.17.17,0,0,1,0,.19A9.27,9.27,0,0,1,410.8,337.88Zm-1.63-.38a1.07,1.07,0,0,0-.14.16.47.47,0,0,0-.07.4c.08.31.23.34.28.34.51.08,1.6-1,2.27-1.84a5.83,5.83,0,0,0-2.34.94Z" transform="translate(0 -0.05)"/><path class="cls-13" d="M412,336.43l-.08.05c-.83.22-3,.08-3.46-.62a.59.59,0,0,1,.08-.72,1,1,0,0,1,.69-.35c1.1-.08,2.69,1.33,2.76,1.39a.16.16,0,0,1,.05.17A.12.12,0,0,1,412,336.43Zm-3.13-1.12-.06.06c-.14.17-.08.26-.06.3.27.41,1.79.64,2.73.53a4.31,4.31,0,0,0-2.22-1.06.58.58,0,0,0-.37.17Z" transform="translate(0 -0.05)"/><path class="cls-13" d="M346.46,354.16c-.94,0-1.85-.13-2.15-.55a.63.63,0,0,1,0-.76.88.88,0,0,1,.55-.41c1.22-.33,3.79,1.13,3.9,1.2a.16.16,0,0,1,.08.18.17.17,0,0,1-.13.14A13.07,13.07,0,0,1,346.46,354.16Zm-1.16-1.42a1,1,0,0,0-.34,0,.53.53,0,0,0-.34.24c-.12.22-.08.33,0,.39.34.47,2.2.48,3.56.29a7.91,7.91,0,0,0-2.88-.92Z" transform="translate(0 -0.05)"/><path class="cls-13" d="M348.68,354h-.07c-.88-.4-2.64-2-2.51-2.82,0-.2.17-.44.65-.49a1.34,1.34,0,0,1,1,.3c.93.77,1.13,2.75,1.14,2.83a.21.21,0,0,1-.08.16A.2.2,0,0,1,348.68,354Zm-1.79-3h-.1c-.32,0-.34.15-.34.19-.08.5,1.11,1.75,2,2.29a4.05,4.05,0,0,0-1-2.26.89.89,0,0,0-.56-.2Z" transform="translate(0 -0.05)"/><path class="cls-9" d="M411.7,335.32l6-5.71a.64.64,0,0,1,.8-.07l5.56,3.72a1.08,1.08,0,0,1,.29,1.49,1.54,1.54,0,0,1-.17.19c-2.11,2-3.24,2.81-5.86,5.31-1.62,1.55-6.44,6.8-8.67,8.94s-4.63.2-3.91-.87c3.24-4.81,5.26-9.42,5.44-11.85A1.85,1.85,0,0,1,411.7,335.32Z" transform="translate(0 -0.05)"/><path class="cls-9" d="M349.46,352.94h8a.63.63,0,0,1,.62.5l1.45,6.53a1.06,1.06,0,0,1-.79,1.27,1.15,1.15,0,0,1-.26,0c-2.9,0-7.08-.21-10.72-.21-4.25,0-7.92.23-12.91.23-3,0-3.85-3.05-2.59-3.33,5.74-1.25,10.44-1.39,15.4-4.45A3.51,3.51,0,0,1,349.46,352.94Z" transform="translate(0 -0.05)"/><path class="cls-18" d="M339,118.05c-2.92,4.3-5.93,8.32-9.17,12.29a138,138,0,0,1-10.41,11.48L318,143.2l-.36.34-.26.24-.38.27a10.13,10.13,0,0,1-1.51,1,13.53,13.53,0,0,1-5.45,1.53,30.74,30.74,0,0,1-8.66-.72,65.2,65.2,0,0,1-14.85-5.22l1.84-5.2a116.73,116.73,0,0,0,14.18,1.94,25.81,25.81,0,0,0,6.27-.26,4,4,0,0,0,1.66-.65s0-.06,0-.06h0l.08-.08.29-.33,1.19-1.3c3.12-3.56,6.15-7.36,9.09-11.24s5.89-7.86,8.7-11.74Z" transform="translate(0 -0.05)"/><path class="cls-13" d="M379.16,103.05c6.88,1.58,14.78,20.35,14.78,20.35l-13.83,9.48A115.67,115.67,0,0,1,371,117.34C366.9,108.75,372.12,101.43,379.16,103.05Z" transform="translate(0 -0.05)"/><path class="cls-12" d="M374.22,115.05l6.54,17.41-.65.45s-2.83-4-5.89-9.33Z" transform="translate(0 -0.05)"/><path class="cls-13" d="M338,103.42s-7.82,8.83-.43,63.5h39.29c.27-6-3.52-35.46,2.3-63.88A102.23,102.23,0,0,0,366,101.38a145.38,145.38,0,0,0-16.7,0A73.56,73.56,0,0,0,338,103.42Z" transform="translate(0 -0.05)"/><path class="cls-12" d="M342.36,119.23a34.8,34.8,0,0,1-7.76,16.82c-.16-3.52-.22-6.68-.21-9.51Z" transform="translate(0 -0.05)"/><path class="cls-13" d="M345.75,109.38c1,7-12.74,24.72-12.74,24.72l-13.77-9.48s3.82-9.79,10.25-16.21C336.84,101.05,344.7,101.81,345.75,109.38Z" transform="translate(0 -0.05)"/><path class="cls-18" d="M289.32,136.05l-5.39-5.57-5.75,7.41s4.38,4.23,9.59,3Z" transform="translate(0 -0.05)"/><polygon class="cls-18" points="276.53 127.33 274.06 135.11 278.18 137.81 283.93 130.39 276.53 127.33"/><path class="cls-18" d="M365,74.49c-.45,7.27-.34,11.56-4,15.29-5.53,5.62-14.51,2.29-16.24-5-1.57-6.54-.57-17.34,6.55-20.23A9.95,9.95,0,0,1,365,74.49Z" transform="translate(0 -0.05)"/><path class="cls-9" d="M371.33,59.3c2.24,2.06,1.29,4.36.12,4.79,3.63.75,4.16,3.64,2.25,9.74C371.88,79.67,367.47,87.5,362,88c-8.28.72-10.7-7.91-10.76-16.47-4.68.29-2.66-3.86-8.41-2.9-5,.83-3.12-3.07-7.37-4.77-4.93-2-3.94-9.55.66-7.38,0,0-2.13,1.4.35,2.72s2.24-1.73,7.15-2.1,5.48,3.83,11.22,1.3C362,55.2,366.73,55.05,371.33,59.3Z" transform="translate(0 -0.05)"/><path class="cls-9" d="M368.57,64.05a2.87,2.87,0,0,1,3.19-1.25c2.25.48,2.43,1.47,3.84,1.34s.9,1.37.9,1.37-.38-1.13-2.08-.5-2.81-.91-3.54-.22S368.57,64.05,368.57,64.05Z" transform="translate(0 -0.05)"/><path class="cls-18" d="M355.12,76.47a8.13,8.13,0,0,1-2.57,4.62c-1.78,1.58-3.32.31-3.38-1.85,0-1.95.83-5.13,2.88-5.89S355.49,74.31,355.12,76.47Z" transform="translate(0 -0.05)"/><path class="cls-9" d="M351.5,166.92s8.34,56.13,12.92,77.13c5,23,39.85,84.2,39.85,84.2l12.8-4.16S389.32,269,386.46,246.14c-3.11-24.75-9.6-79.26-9.6-79.26Z" transform="translate(0 -0.05)"/><path class="cls-13" d="M400.69,324.25c-.05,0,2.93,4.48,2.93,4.48L418,324.05l-1.69-4.3Z" transform="translate(0 -0.05)"/><path class="cls-12" d="M356.77,186.92c9.64,1.89,8.62,37.84,7.46,56.33-2.78-13.07-6.85-38.22-9.63-56.07A3.32,3.32,0,0,1,356.77,186.92Z" transform="translate(0 -0.05)"/><path class="cls-9" d="M337.57,166.92s-1,54.93-.22,77.33c.83,23.3,9,99.6,9,99.6H358.8s.45-74.94,1-97.82c.6-25,3.61-79.11,3.61-79.11Z" transform="translate(0 -0.05)"/><path class="cls-13" d="M343.93,338.89c-.06,0,.7,5.17.7,5.17h15.14l.41-4.61Z" transform="translate(0 -0.05)"/></g></svg>