<svg xmlns="http://www.w3.org/2000/svg" viewBox="0 0 500 500"><defs><style>.cls-1{fill:none;}.cls-2{fill:#b3b3b3;stroke:#b3b3b3;stroke-miterlimit:10;}</style></defs><title>imageplaceholder_2</title><g id="Layer_2" data-name="Layer 2"><g id="Layer_1-2" data-name="Layer 1"><rect class="cls-1" width="500" height="500" rx="13.89"/><path class="cls-2" d="M148.41,176.85l-4-2.36a16.06,16.06,0,0,1-6.24-6.68,21.75,21.75,0,0,1-2.21-10v-14a21.75,21.75,0,0,1,2.21-10,16.11,16.11,0,0,1,6.24-6.7,18.09,18.09,0,0,1,9.34-2.37,17.45,17.45,0,0,1,8.08,1.88,17.05,17.05,0,0,1,6.17,5.32,19.83,19.83,0,0,1,3.36,8H164a11.43,11.43,0,0,0-2.23-4.27,11,11,0,0,0-3.67-2.9,9.87,9.87,0,0,0-13.5,4.73,14.55,14.55,0,0,0-1.3,6.35v14a14.58,14.58,0,0,0,1.3,6.33,9.86,9.86,0,0,0,3.65,4.24,10.08,10.08,0,0,0,5.49,1.49,10.48,10.48,0,0,0,4.37-.95,10.22,10.22,0,0,0,3.66-2.81,11.11,11.11,0,0,0,2.23-4.43h7.35a19.85,19.85,0,0,1-3.37,8,17.31,17.31,0,0,1-6.19,5.33,17.54,17.54,0,0,1-8.05,1.88Z"/><path class="cls-2" d="M188,166.9a3.17,3.17,0,0,0,.58,2,2,2,0,0,0,1.63.73h3.37v6.82h-4.21a8,8,0,0,1-6.31-2.54q-2.24-2.52-2.24-7.13V125.2H188Z"/><path class="cls-2" d="M201.67,125.2h7.17v7.17h-7.17Zm0,14.63h7.17v36.49h-7.17Z"/><path class="cls-2" d="M229.48,176.85,226,175a12.54,12.54,0,0,1-5.4-5.41,18.3,18.3,0,0,1-1.86-8.58v-6a17.9,17.9,0,0,1,1.86-8.47,12.48,12.48,0,0,1,5.4-5.36,18.17,18.17,0,0,1,8.52-1.85,20.13,20.13,0,0,1,5.36.69,15.94,15.94,0,0,1,4.52,2,12.18,12.18,0,0,1,3.34,3.17l-5.17,4.64a10.61,10.61,0,0,0-3.62-2.71,10.29,10.29,0,0,0-4.32-.95,8.63,8.63,0,0,0-6.44,2.32,9,9,0,0,0-2.28,6.54v6a9.21,9.21,0,0,0,2.27,6.68,8.53,8.53,0,0,0,6.45,2.36,9.79,9.79,0,0,0,4.36-1,10.56,10.56,0,0,0,3.58-2.89l5.17,5a12.86,12.86,0,0,1-3.37,3.11,16.31,16.31,0,0,1-4.52,2,20.92,20.92,0,0,1-5.33.67Z"/><path class="cls-2" d="M255.6,125.2h7.17v51.12H255.6Zm3.09,37.27,18.78-22.64h8.44L258.24,171Zm8.48-7.21,4.6-4.78,15.93,25.84h-7.81Z"/><path class="cls-2" d="M310.2,139.83h16.45v6.47H310.2ZM316,174.05c-1.37-1.63-2.06-4-2.06-7.22V129.21h7.17V166.9a3.43,3.43,0,0,0,.53,2,1.78,1.78,0,0,0,1.55.73h3.44v6.82H322.5Q318.08,176.5,316,174.05Z"/><path class="cls-2" d="M342.37,175a12.25,12.25,0,0,1-5.15-5.43,19,19,0,0,1-1.78-8.59V155a18.68,18.68,0,0,1,1.78-8.5,12.21,12.21,0,0,1,5.15-5.37,18.75,18.75,0,0,1,16.24,0,12.21,12.21,0,0,1,5.15,5.37,18.82,18.82,0,0,1,1.77,8.5v6a18.89,18.89,0,0,1-1.77,8.53,12.31,12.31,0,0,1-5.15,5.39,18.56,18.56,0,0,1-16.24,0Zm13.94-7.31a9.72,9.72,0,0,0,2.05-6.61v-6a9.61,9.61,0,0,0-2.05-6.58,8.46,8.46,0,0,0-11.64,0,9.61,9.61,0,0,0-2.06,6.58v6a9.73,9.73,0,0,0,2.06,6.61,8.36,8.36,0,0,0,11.64,0Z"/><path class="cls-2" d="M123.64,261a14.57,14.57,0,0,1-6.13-6.5,23,23,0,0,1-2.11-10.28V211.6h7.17v32.87q0,5.59,2.81,8.65c1.88,2,4.52,3.06,8,3.06s6.11-1,8-3.06,2.83-4.92,2.83-8.65V211.6h7.17v32.63a23.1,23.1,0,0,1-2.11,10.28,14.61,14.61,0,0,1-6.15,6.5,19.89,19.89,0,0,1-9.74,2.24A19.69,19.69,0,0,1,123.64,261Z"/><path class="cls-2" d="M162.58,226.23h7.17v51.33h-7.17ZM173,261.61a9.56,9.56,0,0,1-3.72-4.62l.49-7.63a8.77,8.77,0,0,0,.84,4A5.92,5.92,0,0,0,173,255.9a7.89,7.89,0,0,0,3.88.88,7,7,0,0,0,5.5-2.16,8.82,8.82,0,0,0,2-6.1v-7.91a9.12,9.12,0,0,0-2-6.23,7,7,0,0,0-5.5-2.21A8.24,8.24,0,0,0,173,233a5.75,5.75,0,0,0-2.45,2.48,8.49,8.49,0,0,0-.84,3.92l-.74-7a12.68,12.68,0,0,1,4.32-4.94,10.7,10.7,0,0,1,5.95-1.74,12.17,12.17,0,0,1,6.62,1.74,10.89,10.89,0,0,1,4.2,5.08,20.11,20.11,0,0,1,1.45,8v8a19.44,19.44,0,0,1-1.48,7.94,11,11,0,0,1-4.32,5.05,12.87,12.87,0,0,1-6.83,1.74A10.72,10.72,0,0,1,173,261.61Z"/><path class="cls-2" d="M208.91,253.3a3.23,3.23,0,0,0,.58,2,2,2,0,0,0,1.64.73h3.37v6.82h-4.22a8,8,0,0,1-6.31-2.54q-2.24-2.52-2.23-7.13V211.6h7.17Z"/><path class="cls-2" d="M228.46,261.38a12.25,12.25,0,0,1-5.15-5.43,19.16,19.16,0,0,1-1.78-8.59v-5.94a18.82,18.82,0,0,1,1.78-8.5,12.21,12.21,0,0,1,5.15-5.37,18.75,18.75,0,0,1,16.24,0,12.21,12.21,0,0,1,5.15,5.37,18.68,18.68,0,0,1,1.78,8.5v6a18.76,18.76,0,0,1-1.78,8.53,12.31,12.31,0,0,1-5.15,5.39,18.56,18.56,0,0,1-16.24,0Zm13.94-7.31a9.73,9.73,0,0,0,2.06-6.61v-6a9.61,9.61,0,0,0-2.06-6.58,8.46,8.46,0,0,0-11.64,0,9.61,9.61,0,0,0-2,6.58v6a9.72,9.72,0,0,0,2,6.61,8.36,8.36,0,0,0,11.64,0Z"/><path class="cls-2" d="M263.41,260.45q-3.35-2.79-3.34-8.49c0-3.61,1-6.31,3.05-8.12s5.12-2.71,9.25-2.71h10.37l.49,5.77H272.41a6.16,6.16,0,0,0-4.21,1.25,4.88,4.88,0,0,0-1.38,3.81,4.76,4.76,0,0,0,1.84,4.12,9.59,9.59,0,0,0,5.61,1.33,16.11,16.11,0,0,0,6.13-.88,2.88,2.88,0,0,0,2-2.74l.74,5.13a8.32,8.32,0,0,1-2.33,2.43,10.14,10.14,0,0,1-3.22,1.42,16.22,16.22,0,0,1-4.11.48Q266.75,263.25,263.41,260.45Zm19-20.86a7.71,7.71,0,0,0-1.91-5.58,7.21,7.21,0,0,0-5.43-2,13.76,13.76,0,0,0-4.27.67,12.3,12.3,0,0,0-3.71,1.86L261.86,231a13.7,13.7,0,0,1,5.47-3.88,19.63,19.63,0,0,1,7.54-1.39,17.34,17.34,0,0,1,7.77,1.6,11.16,11.16,0,0,1,4.92,4.64,15,15,0,0,1,1.69,7.33v23.45h-6.83Z"/><path class="cls-2" d="M304.87,261.61a11,11,0,0,1-4.3-5.08,19.62,19.62,0,0,1-1.48-8v-8.05a20.25,20.25,0,0,1,1.44-8.05,11,11,0,0,1,4.2-5.09,12.18,12.18,0,0,1,6.63-1.74,11,11,0,0,1,5.92,1.69,12.41,12.41,0,0,1,4.34,4.75l-.73,7.45a8.65,8.65,0,0,0-.85-4A5.69,5.69,0,0,0,317.6,233a8,8,0,0,0-3.89-.87,6.94,6.94,0,0,0-5.5,2.22,9.11,9.11,0,0,0-1.95,6.22v8a8.83,8.83,0,0,0,1.95,6.13,7,7,0,0,0,5.5,2.16,7.93,7.93,0,0,0,3.89-.89,5.88,5.88,0,0,0,2.44-2.59,9,9,0,0,0,.85-4l.49,7.7a10.4,10.4,0,0,1-3.57,4.53,10,10,0,0,1-6.1,1.83A12.83,12.83,0,0,1,304.87,261.61Zm16-50h7.17v51.12h-7.17Z"/><path class="cls-2" d="M359.87,260.45c-2.22-1.86-3.34-4.69-3.34-8.49,0-3.61,1-6.31,3.06-8.12s5.12-2.71,9.25-2.71h10.37l.49,5.77H368.87a6.14,6.14,0,0,0-4.2,1.25,4.88,4.88,0,0,0-1.39,3.81,4.77,4.77,0,0,0,1.85,4.12,9.59,9.59,0,0,0,5.61,1.33,16.11,16.11,0,0,0,6.13-.88,2.88,2.88,0,0,0,2-2.74l.74,5.13a8.23,8.23,0,0,1-2.34,2.43,10.09,10.09,0,0,1-3.21,1.42,16.24,16.24,0,0,1-4.12.48Q363.21,263.25,359.87,260.45Zm19-20.86A7.76,7.76,0,0,0,377,234a7.21,7.21,0,0,0-5.43-2,13.87,13.87,0,0,0-4.28.67,12.36,12.36,0,0,0-3.7,1.86L358.33,231a13.73,13.73,0,0,1,5.46-3.88,19.7,19.7,0,0,1,7.54-1.39,17.29,17.29,0,0,1,7.77,1.6,11.14,11.14,0,0,1,4.93,4.64,15,15,0,0,1,1.68,7.33v23.45h-6.82Z"/><path class="cls-2" d="M41.57,298h7.17v51.12H41.57Zm3.69,24.47H61.61a7.57,7.57,0,0,0,4.08-1.09,7.2,7.2,0,0,0,2.72-3.09,11.51,11.51,0,0,0,0-9.25,7.37,7.37,0,0,0-2.72-3.11,7.49,7.49,0,0,0-4.08-1.11H45.26V298h16.1a16.18,16.18,0,0,1,8,1.95,13.58,13.58,0,0,1,5.4,5.51,18.53,18.53,0,0,1,0,16.43,13.48,13.48,0,0,1-5.4,5.47,16.28,16.28,0,0,1-8,1.93H45.26Z"/><path class="cls-2" d="M83.93,312.63H91.1v36.49H83.93Zm17.69,6.89a8.69,8.69,0,0,0-3.34-.6A7.15,7.15,0,0,0,93,320.8,7.05,7.05,0,0,0,91.1,326l-.73-7a13.3,13.3,0,0,1,4.36-5.08,10.25,10.25,0,0,1,5.9-1.81,13.39,13.39,0,0,1,4.52.72,10.05,10.05,0,0,1,3.53,2.13L104,321.28A6,6,0,0,0,101.62,319.52Z"/><path class="cls-2" d="M119.83,347.78a12.25,12.25,0,0,1-5.15-5.43,19,19,0,0,1-1.78-8.59v-5.94a18.61,18.61,0,0,1,1.78-8.49,12.19,12.19,0,0,1,5.15-5.38,18.75,18.75,0,0,1,16.24,0,12.19,12.19,0,0,1,5.15,5.38,18.74,18.74,0,0,1,1.78,8.49v6a18.89,18.89,0,0,1-1.78,8.53,12.31,12.31,0,0,1-5.15,5.39,18.56,18.56,0,0,1-16.24,0Zm13.94-7.31a9.72,9.72,0,0,0,2-6.61v-6a9.61,9.61,0,0,0-2-6.58,8.46,8.46,0,0,0-11.64,0,9.61,9.61,0,0,0-2.06,6.58v6a9.73,9.73,0,0,0,2.06,6.61,8.36,8.36,0,0,0,11.64,0Z"/><path class="cls-2" d="M150.38,312.63h18.24v6.12H150.38Zm3.87-5q0-4.85,2.23-7.26c1.49-1.6,3.78-2.41,6.87-2.41h5.27v6.82h-5.13a1.76,1.76,0,0,0-1.55.78,3.47,3.47,0,0,0-.52,2v41.52h-7.17Z"/><path class="cls-2" d="M177.06,298h7.17v7.17h-7.17Zm0,14.63h7.17v36.49h-7.17Z"/><path class="cls-2" d="M202.3,339.7a3.23,3.23,0,0,0,.58,2.05,2,2,0,0,0,1.64.73h3.37v6.82h-4.22a8,8,0,0,1-6.31-2.54c-1.48-1.68-2.23-4.06-2.23-7.13V298h7.17Z"/><path class="cls-2" d="M225.86,349.65l-3.59-1.9a12.67,12.67,0,0,1-5.46-5.57,19.22,19.22,0,0,1-1.89-8.88v-4.11a21.49,21.49,0,0,1,1.82-9.25A12.94,12.94,0,0,1,222,314.1a16.3,16.3,0,0,1,8.3-2,13.12,13.12,0,0,1,7.8,2.29A14.15,14.15,0,0,1,243,321a28.15,28.15,0,0,1,1.71,10.37v2.39H220.13V328h17.79a12.21,12.21,0,0,0-2.31-6.94,6.47,6.47,0,0,0-5.32-2.48,7.77,7.77,0,0,0-6.31,2.67q-2.23,2.67-2.23,7.56v4.64c0,3,.79,5.34,2.39,7a9.07,9.07,0,0,0,6.78,2.43,11.47,11.47,0,0,0,4.33-.88,12.8,12.8,0,0,0,3.83-2.46l4.71,4.71a20,20,0,0,1-6.08,4,17.36,17.36,0,0,1-6.79,1.43Z"/><path class="cls-2" d="M281.79,349.12h-7.17V298h7.17Z"/><path class="cls-2" d="M293.75,312.63h7.17v36.49h-7.17ZM315.54,327a8.62,8.62,0,0,0-1.9-6,6.85,6.85,0,0,0-5.38-2.11,7.48,7.48,0,0,0-5.43,1.86,7,7,0,0,0-1.91,5.24l-.74-7a13,13,0,0,1,4.41-5.1,10.79,10.79,0,0,1,6-1.79,11.86,11.86,0,0,1,6.54,1.74,10.94,10.94,0,0,1,4.13,5.08,20.48,20.48,0,0,1,1.42,8.05v22.15h-7.17Zm21.8,0a8.33,8.33,0,0,0-2-6,7.36,7.36,0,0,0-5.62-2.11,6.58,6.58,0,0,0-5.17,2,8.34,8.34,0,0,0-1.83,5.77l-1.44-7a14,14,0,0,1,4.56-5.6,10.56,10.56,0,0,1,6.24-2,12.51,12.51,0,0,1,6.73,1.74,10.93,10.93,0,0,1,4.25,5.08,20.1,20.1,0,0,1,1.46,8.05v22.15h-7.17Z"/><path class="cls-2" d="M357,346.85q-3.35-2.79-3.34-8.49c0-3.61,1-6.31,3.06-8.12s5.12-2.71,9.25-2.71h10.37l.49,5.77H366a6.14,6.14,0,0,0-4.2,1.25,4.85,4.85,0,0,0-1.39,3.81,4.77,4.77,0,0,0,1.85,4.12,9.58,9.58,0,0,0,5.6,1.33,16.13,16.13,0,0,0,6.14-.88,2.88,2.88,0,0,0,2-2.74l.74,5.13a8.23,8.23,0,0,1-2.34,2.43,10.14,10.14,0,0,1-3.22,1.42,16.16,16.16,0,0,1-4.11.48Q360.33,349.65,357,346.85ZM376,326a7.68,7.68,0,0,0-1.92-5.57,7.15,7.15,0,0,0-5.43-2,13.85,13.85,0,0,0-4.27.67,12.54,12.54,0,0,0-3.71,1.86l-5.24-3.59a13.84,13.84,0,0,1,5.47-3.88,19.66,19.66,0,0,1,7.54-1.39,17.31,17.31,0,0,1,7.77,1.6,11.06,11.06,0,0,1,4.92,4.64,14.85,14.85,0,0,1,1.69,7.33v23.45H376Z"/><path class="cls-2" d="M398.46,348a11,11,0,0,1-4.31-5.08,19.78,19.78,0,0,1-1.48-8v-8.05a20.07,20.07,0,0,1,1.45-8.05,10.89,10.89,0,0,1,4.2-5.08,12.17,12.17,0,0,1,6.62-1.74,11,11,0,0,1,5.93,1.68,12.49,12.49,0,0,1,4.34,4.75l-.74,7.45a8.65,8.65,0,0,0-.84-4,5.72,5.72,0,0,0-2.45-2.51,8,8,0,0,0-3.88-.87,6.93,6.93,0,0,0-5.5,2.22,9.11,9.11,0,0,0-1.95,6.22v7.95a8.83,8.83,0,0,0,1.95,6.13,7,7,0,0,0,5.5,2.16,7.78,7.78,0,0,0,3.88-.89,5.9,5.9,0,0,0,2.45-2.59,9,9,0,0,0,.84-4l.49,7.7a10.3,10.3,0,0,1-3.56,4.53,10,10,0,0,1-6.1,1.83A12.78,12.78,0,0,1,398.46,348ZM401.85,364l-3.25-1.53a11.88,11.88,0,0,1-5.05-4.31l4.86-4.39a10,10,0,0,0,3.35,3,8.44,8.44,0,0,0,4.1,1.06,8.57,8.57,0,0,0,6.36-2.27,8.72,8.72,0,0,0,2.25-6.42V312.63h7.17V348a18.61,18.61,0,0,1-1.84,8.61,12.49,12.49,0,0,1-5.36,5.45A17.94,17.94,0,0,1,406,364Z"/><path class="cls-2" d="M442.42,349.65l-3.59-1.9a12.67,12.67,0,0,1-5.46-5.57,19.22,19.22,0,0,1-1.88-8.88v-4.11a21.49,21.49,0,0,1,1.81-9.25,13,13,0,0,1,5.25-5.84,16.32,16.32,0,0,1,8.3-2,13.15,13.15,0,0,1,7.81,2.29,14.13,14.13,0,0,1,4.93,6.61,28.15,28.15,0,0,1,1.71,10.37v2.39H436.69V328h17.79a12.28,12.28,0,0,0-2.3-6.94,6.49,6.49,0,0,0-5.33-2.48,7.77,7.77,0,0,0-6.31,2.67q-2.24,2.67-2.23,7.56v4.64c0,3,.79,5.34,2.39,7a9.07,9.07,0,0,0,6.78,2.43,11.44,11.44,0,0,0,4.33-.88,12.68,12.68,0,0,0,3.83-2.46l4.71,4.71a20,20,0,0,1-6.08,4,17.32,17.32,0,0,1-6.79,1.43Z"/></g></g></svg>