<svg id="Layer_1" data-name="Layer 1" xmlns="http://www.w3.org/2000/svg" viewBox="0 0 3205.89 2392.45"><defs><style>.cls-1{fill:#e0e1e0;}.cls-2{fill:#ebebeb;}.cls-3{fill:#f5f6f6;}.cls-11,.cls-4{fill:#fff;}.cls-5{fill:#1bbdc7;}.cls-6{fill:#273339;}.cls-7{fill:none;}.cls-8{fill:#b78875;}.cls-9{fill:#a36958;}.cls-10{fill:#465b65;}.cls-11{opacity:0.4;isolation:isolate;}</style></defs><title>socialmedia</title><path class="cls-1" d="M671,1310.32a95,95,0,0,0,79-68.55c14.94-50.34-11.25-102.43-58.5-116.4S594,1140.86,579,1191.19a94.83,94.83,0,0,0,29.74,101c-137.5-18.46-173.26,126.28-173.26,126.28l311.15,92.08S795.9,1368,671,1310.32Z" transform="translate(2236.82 -546.05)"/><path class="cls-2" d="M-511.45,2350.07a57,57,0,0,0-57.05-57h-.16l-1225.87,1.85a57,57,0,0,0-57,57v.16l.56,376.49a57.11,57.11,0,0,0,57.22,57h0l1065.14-1.6,141.19,142.89V2783.8h19.77a57,57,0,0,0,57.06-57v-.16Z" transform="translate(2236.82 -546.05)"/><path class="cls-3" d="M-1640.24,2737.57h1.29l-2.49-40.14Z" transform="translate(2236.82 -546.05)"/><path class="cls-3" d="M-1587.44,2334.74c-113.26.11-205,91.93-204.87,205.07a204.79,204.79,0,0,0,88.67,168.45,1000.76,1000.76,0,0,1-16.07-170.82h-1c0-3.38.89-8.43,1.37-13.65h0c.51-6.43,1.34-12.84,2.49-19.19,23.3-99,107.36-118.89,124.07-119.21,17.92,0,49-11,95.63,36.77a93,93,0,0,1,22.58,100.58h0c.88,32.12,1.45,67.68.56,90-1.93,47.21-48.21,53.15-48.21,53.15s-2.25,40.62-2.9,69.12c108-34,168-149.06,134-257a205,205,0,0,0-196-143.29Z" transform="translate(2236.82 -546.05)"/><path class="cls-2" d="M-1523.32,2677.52c-46.12,2.81-60.59-31.63-60.59-31.63a112.65,112.65,0,0,0,61.4,20s46.36-5.94,48.21-53.14c.89-22.32,0-58.21-.56-90l-8-7-67.1-16.62c5-18.7-3.29-41.66-8-52.34l-.48-.4c-12.06,70.89-87.92,79.72-87.92,79.72l5.07,171.71,2.49,40.14a206.46,206.46,0,0,0,113.54-2.89c.65-28.5,2.9-69.12,2.9-69.12Zm-35.68-134a6,6,0,0,1-6.26-5.78,6,6,0,0,1,5.78-6.26,6,6,0,0,1,6.27,5.78v.16a5.94,5.94,0,0,1-5.78,6.1Zm68.31-1.29a6,6,0,0,1-6.26-5.77,6,6,0,0,1,5.78-6.26,6,6,0,0,1,6.26,5.78v.15a5.86,5.86,0,0,1-5.62,6.1Zm-9.4-17.18a15.08,15.08,0,0,1,9.4-2.73,15.25,15.25,0,0,1,9.16,3.54c1.93,1.68,2.57,3.21,2.17,3.53s-5.14-2.89-11.49-3.13-11.09,3-11.73,2.16S-1501.78,2526.68-1500.09,2525.07Zm-27.73,3.45a247.83,247.83,0,0,1,12.86,34.12l4.42,13.49a10.61,10.61,0,0,1,.72,6.82,4,4,0,0,1-2.73,2.41,8.92,8.92,0,0,1-2.73,0,39.76,39.76,0,0,1-10.45-.4,39.21,39.21,0,0,1,10.37-1.61c1.61,0,3.13-.4,3.45-1.52a9.93,9.93,0,0,0-1-5.22l-4.58-13.41a239.15,239.15,0,0,1-10.29-34.67Zm12.14,73.54a17.46,17.46,0,0,1-21,6.58,13.72,13.72,0,0,1-10-16.65l0-.13c-6.51-4.25,18,10.44,30.94,10.2Zm-54.81-75.38A15.23,15.23,0,0,1-1561,2524a14.84,14.84,0,0,1,9.09,3.53c1.92,1.61,2.57,3.13,2.25,3.53s-5.15-3-11.5-3.13-11.09,3-11.81,2.09S-1572.5,2527.88-1570.49,2526.68Z" transform="translate(2236.82 -546.05)"/><path class="cls-1" d="M-1490.93,2530.21a6,6,0,0,0-6,6,6,6,0,0,0,6,6,5.86,5.86,0,0,0,5.79-5.93,1,1,0,0,0,0-.17A5.94,5.94,0,0,0-1490.93,2530.21Z" transform="translate(2236.82 -546.05)"/><path class="cls-1" d="M-1490.85,2526.68c6.35,0,10.77,3.93,11.49,3.13s0-1.85-2.17-3.53a15.18,15.18,0,0,0-9.16-3.53,15,15,0,0,0-9.4,2.72c-2.09,1.53-2.82,3-2.5,3.38S-1497.2,2526-1490.85,2526.68Z" transform="translate(2236.82 -546.05)"/><path class="cls-1" d="M-1559.24,2531.5a6,6,0,0,0-6,6,6,6,0,0,0,6,6,6,6,0,0,0,6-6v-.08A6,6,0,0,0-1559.24,2531.5Z" transform="translate(2236.82 -546.05)"/><path class="cls-1" d="M-1561.17,2527.64c6.35,0,10.77,3.94,11.5,3.13s0-1.92-2.25-3.53a14.84,14.84,0,0,0-9.09-3.53,15.23,15.23,0,0,0-9.48,2.65c-2,1.52-2.81,3-2.49,3.37S-1567.51,2527.32-1561.17,2527.64Z" transform="translate(2236.82 -546.05)"/><path class="cls-1" d="M-1512.95,2576.93a9.93,9.93,0,0,1,1,5.22c0,1.12-1.84,1.44-3.45,1.53a38.79,38.79,0,0,0-10.37,1.6,39.76,39.76,0,0,0,10.45.4,8.34,8.34,0,0,0,2.73,0,4,4,0,0,0,2.73-2.41,10.61,10.61,0,0,0-.72-6.82L-1515,2563a247.21,247.21,0,0,0-12.86-34.11,238.35,238.35,0,0,0,10.29,35Z" transform="translate(2236.82 -546.05)"/><path class="cls-4" d="M-1536.66,2608.64a17.46,17.46,0,0,0,21-6.58c-12.94,0-37.45-14.45-30.94-10.2a13.73,13.73,0,0,0,9.83,16.75Z" transform="translate(2236.82 -546.05)"/><path class="cls-1" d="M-1583.91,2645.89s14.47,34.44,60.59,31.63l.81-11.64A112.65,112.65,0,0,1-1583.91,2645.89Z" transform="translate(2236.82 -546.05)"/><path class="cls-1" d="M-1646.43,2526.12s75.86-8.83,87.92-79.72l.48.4c4.66,10.68,12.94,33.64,8,52.34l67.75,16.62,8,7h0a93,93,0,0,0-23-100.42c-46.61-47.77-77.71-37.09-95.63-36.77-16.71,0-100.77,20.23-124.07,119.21-1.15,6.35-2,12.76-2.49,19.19h0c-.48,5.22-1,10.27-1.37,13.65h1a1001,1001,0,0,0,16.07,170.83,205,205,0,0,0,63.4,29.3l-1.2-39.74Z" transform="translate(2236.82 -546.05)"/><rect class="cls-3" x="-1307.82" y="2437.85" width="644.55" height="35.48" transform="translate(2232.96 -547.59) rotate(-0.09)"/><rect class="cls-3" x="-1307.64" y="2529.12" width="644.55" height="35.48" transform="translate(2232.82 -547.59) rotate(-0.09)"/><rect class="cls-3" x="-982.49" y="2617.6" width="319.5" height="35.48" transform="translate(2232.68 -547.34) rotate(-0.09)"/><polygon class="cls-1" points="363.54 170.15 382.75 208.92 425.58 215.18 394.56 245.37 401.87 287.99 363.54 267.84 325.29 287.99 332.6 245.37 301.58 215.18 344.42 208.92 363.54 170.15"/><polygon class="cls-1" points="636.68 196.48 641.98 207.23 653.79 208.92 645.28 217.27 647.28 229.07 636.68 223.53 626.15 229.07 628.16 217.27 619.56 208.92 631.37 207.23 636.68 196.48"/><path class="cls-5" d="M179.79,2738.05C14.26,2622.53-23.27,2408.11-16.76,2215.37c1.12-32.12-2.41-66.15,12.86-94.33s51.1-47.52,80.35-34c24.11,11.32,34.32,39.1,47.74,62.06a188,188,0,0,0,75.53,72.25c20.49,10.59,45.89,17.09,66.06,5.94,27.8-15.26,31.1-53.63,30.86-85.66q-.5-89.43-1.05-178.94c0-32.11,0-64.62,9.64-95s32.15-58.61,62.44-67.2,68.15,9.08,74.57,40.14c2.74,13,0,26.57,1,40.14s7.07,28,19.69,31.71,25.63-5.3,35.19-14.69c33-32.11,55.45-73.93,76.42-115.28s41.31-83.81,71.36-119,71.52-63.18,117.32-65.74,94.83,25.68,106.4,70.64-14.71,91-43.39,127.4a714.47,714.47,0,0,1-148.91,141.77c-10,7.22-21,14.93-24.91,26.81-6.91,21.27,13.34,42.47,34.39,49.53,24.11,8,49.75,5.46,74.74,8s52.07,14,61.47,37.57c13.18,32.67-14.22,67-41.14,89.43a612.46,612.46,0,0,1-181.29,104.36c-23.63,8.67-48.22,16-67.42,32.75s-30.46,45.28-19,67.83,41,29.79,65.66,25.21,46.77-18,70.31-26.81c44-16.62,100.85-13.57,129.06,24.08,18.48,25,20.17,59.81,10.76,89.59s-28.36,55.39-48.21,79.07c-70.56,82.69-160.72,149.24-263,184.64s-196.72,45-298.21,8" transform="translate(2236.82 -546.05)"/><path class="cls-6" d="M177.22,2880.94a1408.37,1408.37,0,0,1,52.32-263.71,2872.92,2872.92,0,0,1,113.94-308.74l34.08-79.4c11.25-26,22.34-51.86,34.79-76.42A1436.51,1436.51,0,0,1,492,2015.56c27.48-42.39,55-81.65,81.16-118.17s51.11-69.92,75.21-99.54a1137,1137,0,0,1,124-130.94q24.1-21.44,37-32.11l9.88-8a17.12,17.12,0,0,1,3.54-2.57,23.12,23.12,0,0,1-3.13,3l-9.41,8.43c-8.43,7.38-20.73,18.3-36.32,32.83a1208.3,1208.3,0,0,0-122.14,132.14c-24.11,29.62-48.22,63.17-74.49,99.7s-53.28,75.86-80.36,118.25A1439.06,1439.06,0,0,0,417.9,2155c-12.38,24.48-23.39,50-34.56,76.18l-34,79.31a2930.52,2930.52,0,0,0-114.19,307.94A1427.32,1427.32,0,0,0,181.8,2881" transform="translate(2236.82 -546.05)"/><path class="cls-6" d="M414,2152.43a68.61,68.61,0,0,1-3.14-13.65c-1.68-8.83-3.69-21.67-5.94-37.65-4.5-32.11-9.24-76.1-14.31-124.83s-10.44-92.8-15.42-124.51c-2.5-16-4.59-28.66-6.19-37.49a63.19,63.19,0,0,1-1.77-14,68.39,68.39,0,0,1,4,13.49c2.25,8.67,5.06,21.43,8,37.25,6,31.63,12.14,75.78,17.2,124.59s9.24,91.67,12.62,125c1.6,15,3,27.61,4,37.81A62.86,62.86,0,0,1,414,2152.43Z" transform="translate(2236.82 -546.05)"/><path class="cls-6" d="M825.87,2075.52a86.89,86.89,0,0,1-16.07,2c-10.61,1-25.87,2.17-44.76,4.42-37.69,4-89.6,11.47-146.49,22.15s-108,22.8-144.65,32.59c-18.4,4.74-33.18,8.91-43.39,11.8a87.09,87.09,0,0,1-16.07,3.94,86.45,86.45,0,0,1,15.43-6.18c10-3.54,24.67-8,42.91-13.65,36.56-10.76,87.67-23.44,144.64-34.36s109.29-17.5,147.22-20.55c19-1.61,34.39-2.25,45-2.49A91.66,91.66,0,0,1,825.87,2075.52Z" transform="translate(2236.82 -546.05)"/><path class="cls-6" d="M234.68,2609.6a34.7,34.7,0,0,1-2.89-5c-1.69-3.37-4.18-8.91-7-14.85-6.1-13-14.38-32.11-24.1-55.56-19.85-47.12-45.24-113.11-72.33-186.24s-51.83-139.36-70.63-186.8c-9.24-23.12-16.88-42.07-22.5-56.2-2.41-6.1-4.42-11.15-6-15.33a21.38,21.38,0,0,1-1.76-5.46,22.85,22.85,0,0,1,2.81,5c1.93,4,4.26,8.91,7.07,14.93,6,12.93,14.3,32.11,24.11,55.47,19.85,47.13,45.24,113.11,72.32,186.32s51.75,139.29,70.63,186.73c9.25,23.12,16.8,42.06,22.5,56.19,2.41,6.1,4.42,11.16,6,15.34A26.9,26.9,0,0,1,234.68,2609.6Z" transform="translate(2236.82 -546.05)"/><path class="cls-6" d="M781.92,2433.4a20,20,0,0,1-5.47,2.24L760.38,2441,701.72,2460c-49.42,16.05-117.56,38.93-192.86,64.22S365.34,2572.36,315.44,2587c-24.91,7.54-45.08,13.4-59.14,17.18l-16.08,4.25a19.07,19.07,0,0,1-5.7,1,22.43,22.43,0,0,1,5.38-2.24l16.07-5.3,58.34-19c49.5-16,117.57-38.93,192.86-64.22s143.6-47.76,193.43-62.78c24.91-7.54,45.16-13.4,59.22-17.17l16.07-4.26A27.49,27.49,0,0,1,781.92,2433.4Z" transform="translate(2236.82 -546.05)"/><polygon class="cls-5" points="447.68 1092.85 461.42 1120.54 492.03 1125.04 469.85 1146.63 475.08 1177.14 447.68 1162.69 420.27 1177.14 425.5 1146.63 403.4 1125.04 434.01 1120.54 447.68 1092.85"/><path class="cls-7" d="M-337.79,1132.67c-28.77,3.37-48.7-12.28-53.52-30.5h-.56l-1.85,47.44a14.85,14.85,0,0,1,5.14.48h0a397.53,397.53,0,0,1,43.31,6.5A79.3,79.3,0,0,1-337.79,1132.67Z" transform="translate(2236.82 -546.05)"/><path class="cls-7" d="M-253.26,1175.7a44.53,44.53,0,0,0-3.45-24.08v-.56a83.56,83.56,0,0,1,0,33.71h1.12A46.65,46.65,0,0,0-253.26,1175.7Z" transform="translate(2236.82 -546.05)"/><path class="cls-7" d="M-282.1,867.44v4.73A475.24,475.24,0,0,1-286.93,961a170.34,170.34,0,0,0,9.41-56.19A165.31,165.31,0,0,0-282.1,867.44Z" transform="translate(2236.82 -546.05)"/><path class="cls-8" d="M-327.19,2886l14.23,2.17v-.89l-20.25-2.17Z" transform="translate(2236.82 -546.05)"/><path class="cls-8" d="M-557.73,2937.62c0-2-.49-4.1-.65-6A315.39,315.39,0,0,1-559,2880c.48-6,1.13-10.76,1.69-13.89a34.4,34.4,0,0,1,.88-4.5c-30-3.21-57.21-5.94-79.39-8l-44.68-4.5,7,89.43Z" transform="translate(2236.82 -546.05)"/><path class="cls-8" d="M-481.23,2869.86c-26.28-3-51.27-5.78-74.57-8,0,1.53-.49,8-.73,18.55a372,372,0,0,0,2.33,51,42,42,0,0,0,.89,6.35l253.61-1.69c-7.56-24.08-12.14-39.17-12.86-42.47a18.37,18.37,0,0,1,0-2.57l-14.55-1.84C-367,2883.75-421.37,2876.85-481.23,2869.86Z" transform="translate(2236.82 -546.05)"/><path class="cls-9" d="M-556.85,2879.9c0-10.6.88-17,.72-18.55h0a36.13,36.13,0,0,0-.88,4.5c-.56,3.13-1.21,8-1.69,13.89a314.3,314.3,0,0,0,.65,51.61c0,1.93.48,4,.64,6h3.86c0-2.08-.65-4.25-.89-6.34A371.68,371.68,0,0,1-556.85,2879.9Z" transform="translate(2236.82 -546.05)"/><path class="cls-8" d="M-875,1425.76l-40.74-46.24,3.94-4c-29.65,22.8-51.67,36.69-53.6,29.38-35.6-129.81-31.26-297-27.88-360.76,3.45-5.62,7.31-11.8,12-18.55a86.79,86.79,0,0,1,19.77-20.39,128.19,128.19,0,0,1,30.45-18.14c10.37-3.29,11.73-17.26,2.49-20.39s-38.09,5.14-64.28,28.42-16.88-30.51-13.74-50.09,9.8-80.84,4.5-86.46c-8-8-18.25-1.21-20.9,18.54s-14.7,78.27-25.07,76.34,7-101.71,7-101.71,7.15-20.79-4.74-23.36c-21.37-4.57-32.14,102.68-32.54,112.95-.49,7.07-11.82,5.46-10.85-2.16s19.44-99.31-2.33-104.36c-16.64-3.7-9.32,88.3-23.71,105.4s1.61-70.48-14.54-73.45c-6-1.13-10.61-1.05-12.54,50.33a1129.86,1129.86,0,0,0,8,123.87c-10.21,141.36-25.8,573.73,168.75,553.42,79.87-8,137.65-35.8,179.2-68.07L-873,1427.85Z" transform="translate(2236.82 -546.05)"/><path class="cls-10" d="M-423.62,1934.16l162.41,4.73c.72-49.45,1.44-97.61,2.17-144a64.82,64.82,0,0,1-2.33-6.75V1781c-46.77-1.13-100.45-2.41-158.55-3.94Q-422,1853.09-423.62,1934.16Z" transform="translate(2236.82 -546.05)"/><path class="cls-10" d="M-509.36,1774.73l-93.21-2.65c-1.93,50.57-3.86,103.15-5.79,157l85.9,2.25,94.67,2.56c1.12-54,2.49-106.52,3.93-157.1Z" transform="translate(2236.82 -546.05)"/><path class="cls-10" d="M-268.12,2586.89l-158.79-4c0,13.73,0,27.3.4,40.14.64,44.55,1.21,84,1.69,117.93l158.3,4.73c-.4-30.18-1.12-64.22-1.28-102.35C-268,2625.58-268,2607-268.12,2586.89Z" transform="translate(2236.82 -546.05)"/><path class="cls-10" d="M-263.14,2826c0,21.35.56,38.05.72,49.53v17.34s13.5-56.67,30.7-143.05l-32.14-.72C-264.27,2779-263.54,2804.84-263.14,2826Z" transform="translate(2236.82 -546.05)"/><path class="cls-10" d="M-264.83,2643.72c0,37.89.48,72.25.73,102.44l32.94,1c9.16-46.08,19.37-100.35,29.17-158.95l-62.92-1.28Q-264.91,2616.43-264.83,2643.72Z" transform="translate(2236.82 -546.05)"/><path class="cls-10" d="M-263.22,2875.56c0-11.56-.88-28.18-1.53-49.61s-1.28-47-1.68-76.9c-44.2-1-98.2-2.25-158.39-3.78,0,23.36.64,44.07.88,61.49,0,21.6.57,38.3.73,49.94v16.05c34.15,4.34,64.76,8.67,89.92,12.36l20.25,2.17,50.54,5.54v-4.41C-262.5,2885.52-263,2881.1-263.22,2875.56Z" transform="translate(2236.82 -546.05)"/><path class="cls-10" d="M-188.57,1941.14c-31.1-101.63-53.92-116.8-66.37-138.08-.57,43.92-1.21,89.35-1.93,136Z" transform="translate(2236.82 -546.05)"/><path class="cls-10" d="M-430.45,2099.37l-105.43-2.81-78.75-2.09c-2.17,54.1-4.18,106.53-6.1,156.94l71.68,1.93,117.48,3.21C-431.41,2205.57-431,2153.39-430.45,2099.37Z" transform="translate(2236.82 -546.05)"/><path class="cls-10" d="M-258.56,2042.45q-.48,29.15-.88,57.8l100.2,3.29a568,568,0,0,0-15.18-112.39c-4.59-17.66-9-33.31-13.34-47.44l-69.19-1.53C-257.43,1975.18-258,2008.49-258.56,2042.45Z" transform="translate(2236.82 -546.05)"/><path class="cls-10" d="M-427.87,1938.17l-94.75-2.49-85.9-2.33q-1,25.94-1.93,52.1-2,53.38-4.1,104.92l78.75,2,105.43,2.89q.5-38.05,1.05-76.9Q-428.6,1977.82-427.87,1938.17Z" transform="translate(2236.82 -546.05)"/><path class="cls-10" d="M-263.78,2103.38c-46.85-1-102.06-2.41-162.49-3.93-.64,54-1,106.52-1.28,157.18,60.43,1.68,115.31,3.29,161.44,4.73C-265.47,2210.47-264.27,2157.41-263.78,2103.38Z" transform="translate(2236.82 -546.05)"/><path class="cls-10" d="M-261.29,1942.18c-47.25-1-102.38-2.4-162.41-3.93q-.72,39.66-1.44,80.28-.64,38.92-1.05,77l162.49,4.74c0-19.19.56-38.37,1-57.8C-262.26,2008.41-261.77,1975.1-261.29,1942.18Z" transform="translate(2236.82 -546.05)"/><path class="cls-10" d="M-258.16,1209.1c.4,11.56.89,28.17,1.53,49.61,0,7.3.48,15.49.64,24.08,0,2.73.4,5.38.48,8L-151,1294c-18-51.78-58.1-85.26-101.33-106.53a49.51,49.51,0,0,1-6.11,10.2C-258.48,1200.51-258.32,1204.28-258.16,1209.1Z" transform="translate(2236.82 -546.05)"/><path class="cls-10" d="M-259,1209.18V1198.1c-.48.64-1,1.36-1.53,2a30.94,30.94,0,0,1-2.33,2.25,79.18,79.18,0,0,1-19.69,26.73,82.15,82.15,0,0,1,24.59,41.43v-11.8C-258.56,1237.35-258.8,1220.66-259,1209.18Z" transform="translate(2236.82 -546.05)"/><path class="cls-10" d="M-593.33,1436.44l-139.83-4c-1.76,16-3.69,32.11-5.54,48.16-1.61,14.61-3.21,29-4.82,43a242.7,242.7,0,0,0,17.6,80.28l126,3.13C-597.59,1545.46-595.34,1488.22-593.33,1436.44Z" transform="translate(2236.82 -546.05)"/><path class="cls-10" d="M-408.19,1437.32l56.25,1.53a61.66,61.66,0,0,1,8.44-1.29c-1.28-1.84-1.85-3.45-1.28-3.85a1.12,1.12,0,0,1,1.12,0,35.38,35.38,0,0,1-10.69-24.48c0-19,13.18-35.89,25.64-51.38A110.14,110.14,0,0,1-344,1292.18l-57.46-1.44c-1.6,34.92-3.53,76.1-5.7,122.82C-407.46,1421.35-407.78,1429.3-408.19,1437.32Z" transform="translate(2236.82 -546.05)"/><path class="cls-10" d="M-496,1613.85l-100.69-2.33c-1.76,49.78-3.69,102.28-5.78,157l93.29,2.41,85.42,2.33c1.61-54.83,3.3-107.41,5.15-157Z" transform="translate(2236.82 -546.05)"/><path class="cls-10" d="M-257.19,1184.93c0,1.85-.89,3.61-1.37,5.38a36.52,36.52,0,0,0,2.49-5.06Z" transform="translate(2236.82 -546.05)"/><path class="cls-10" d="M-458.25,1589a105.26,105.26,0,0,1-49.82-20.64,88.42,88.42,0,0,1-12.14-11.07,18,18,0,0,1-3.53-4.82c.56-.56,6.27,5.86,17.44,13.49a110.39,110.39,0,0,0,88.87,16.77c2-50.73,4-98.17,6-141.44l-97.8-2.49-81.08-2.25c-1.93,51.78-4,109-6.27,170.51l100.61,2.65,77.47,2.08c0-8.59.64-17,1-25.44A106.2,106.2,0,0,1-458.25,1589Z" transform="translate(2236.82 -546.05)"/><path class="cls-10" d="M-255.67,1296c0,12.68.57,26.33.81,41,.4,30.58,1.12,65.42,1.28,103.88v.8c54.49,1.68,99,3.13,129.14,4.25-3.94-29.3-10.05-69.28-19.37-124.11a193.3,193.3,0,0,0-6.11-25l-105.59-2.41A9.93,9.93,0,0,1-255.67,1296Z" transform="translate(2236.82 -546.05)"/><path class="cls-10" d="M-256.23,1510.62V1445l-61.23-1.45a25.22,25.22,0,0,1-8,0h-6c.57.73.89,1.29.65,1.61s-2.09,0-4.34-.72a8.72,8.72,0,0,1,.4,1.52,20.32,20.32,0,0,1,2.17,2.73,40.66,40.66,0,0,1,1.77,41.26,28.35,28.35,0,0,1-3.78,5.3c-1.12,1-1.85,1.53-2,1.37s0-1,.64-2.33,1.53-3.21,2.5-5.62a49.16,49.16,0,0,0,3.21-19.43,50.62,50.62,0,0,0-2.65-13.56,67.26,67.26,0,0,1-37.45,68.15l4-18.78a29.52,29.52,0,0,1-21.54,9.87,72.18,72.18,0,0,1,7.07-24.48l-14.54,5.86a58.14,58.14,0,0,1,15.51-40.86,56.69,56.69,0,0,1,17.84-12.61l-45.81-1.2c-1.76,43-3.61,90.07-5.38,140.4,2.81-.72,5.46-1.52,8-2.41,12.77-4.41,20-9.15,20.33-8.51s-1.45,1.69-4.66,3.78a88.35,88.35,0,0,1-14.63,7.54c-2.73,1.13-5.79,2.17-9.08,3.21,0,8.75-.64,17.5-.88,26.5l155.65,4.49,1.37-101.79h0c-45.65-4-79.16-7.63-79.08-8.59S-302.44,1507.16-256.23,1510.62Z" transform="translate(2236.82 -546.05)"/><path class="cls-10" d="M-253.18,1510.86l24.11,2c59.31,5,107.28,9.88,107.2,11.08a23.15,23.15,0,0,1-6.11,0l10.13.72s3.29-5.7-6.35-77c-30.14-.48-74.73-1.45-129.38-2.73C-253.34,1466-253.26,1488-253.18,1510.86Z" transform="translate(2236.82 -546.05)"/><path class="cls-10" d="M-590.12,1432.43l81.08,2.08,97.8,2.73c.4-8,.8-16,1.12-24.08,2.25-46.64,4.42-87.82,6.27-122.74l-36.56-1-144.64-4c-1.05,30.34-2.25,64.78-3.54,102.83C-589,1402.8-589.56,1417.41-590.12,1432.43Z" transform="translate(2236.82 -546.05)"/><path class="cls-10" d="M-714.27,1278.78c37.53.8,80.36,1.84,127.29,3,1.2-28.74,2.25-53.71,3.13-74.18s1.69-37.81,2.25-49.21v-6.82a299.71,299.71,0,0,0-119.65,23.28c-2.17,16.78-4.91,38.37-8,64.22C-710.82,1251.24-712.58,1264.65-714.27,1278.78Z" transform="translate(2236.82 -546.05)"/><path class="cls-10" d="M-600.08,1611l-124.08-3.53a70.1,70.1,0,0,0,3.7,6.82l60.11,99.22-9.8,53,64.28,1.6C-604.1,1713.31-601.77,1660.81-600.08,1611Z" transform="translate(2236.82 -546.05)"/><path class="cls-10" d="M-419.76,1773l158.55,4.5,2-157.75c-46.37-1-99.08-2.41-155.74-3.85C-416.95,1665.55-418.23,1718.13-419.76,1773Z" transform="translate(2236.82 -546.05)"/><path class="cls-10" d="M-614.63,1985.29q1.13-26.25,2-52.1l-92.17-2.57a1497.64,1497.64,0,0,0-35,156.62l121.26,3Q-616.56,2038.69-614.63,1985.29Z" transform="translate(2236.82 -546.05)"/><path class="cls-10" d="M-345.35,1156.76a395.13,395.13,0,0,0-43.31-6.51,26.59,26.59,0,0,1-7.47,1c-4.9,0-11.9.72-20.66,1-17.43.64-41.46.88-68.06.8l-68.06-.48c-16.07,0-26,0-27.81-.8v6.74c0,11.4-.8,27.94-1.44,49.21s-1.61,45.44-2.57,74.1l144.64,3.77,36.72,1c1.21-21.27,2.34-40.14,3.3-56.19,1.37-21.51,2.41-38.21,3.13-49.77.41-5.62.73-9.88.89-12.93a28.22,28.22,0,0,1,.48-4.41v4.41a122.6,122.6,0,0,1-.56,12.93c-.49,11.56-1.29,28.34-2.33,49.85-.73,16-1.61,34.92-2.58,56.19l57.7,1.61a114.65,114.65,0,0,1,24.11-58.6A83.93,83.93,0,0,1-345.35,1156.76Z" transform="translate(2236.82 -546.05)"/><path class="cls-10" d="M-256.23,1440.94c0-38.46-.48-73.3-.64-103.8v-27.38a84.46,84.46,0,0,1-29.49,48.17,75.58,75.58,0,0,1-3.78,64.22,44.48,44.48,0,0,1-16.72,18l50.87,1.53Z" transform="translate(2236.82 -546.05)"/><path class="cls-10" d="M-635.6,2850.43c39.62,3.22,94.26,8,154.53,15.34,20,2.25,39.29,4.65,57.78,7v-3.13c0-3,0-7.38-.49-12.92-.4-11.56-.88-28.34-1.52-49.86-.57-17.42-1.05-38.21-1.61-61.57l-142.72-3.69-70.07-1.93c0,8-.72,16.06-1,23.28-1,21.28-1.77,37.81-2.25,49.21q-.48,8-.73,12.77a18,18,0,0,1-.4,4.33v-17.1c.4-11.48.89-28,1.53-49.21,0-7.22.48-15.09.72-23.36l-65.49-1.76c10.77,79.71,13.5,108.21,13.5,108.21l8.52.88h2.89C-671.44,2847.79-655.45,2848.83-635.6,2850.43Z" transform="translate(2236.82 -546.05)"/><path class="cls-10" d="M-606.35,1772.08l-64.29-1.77-22.82,122.18c-2.73,8.67-6.27,20.31-10.28,34.52l91.28,2.25C-610.37,1875.23-608.28,1822.73-606.35,1772.08Z" transform="translate(2236.82 -546.05)"/><path class="cls-10" d="M-264.27,2425.77c-.48,56.68-.8,109.82-.8,158.31l63.24,2.08c8.52-50.57,16.64-104.36,23.55-158.7C-200,2427.14-229.07,2426.57-264.27,2425.77Z" transform="translate(2236.82 -546.05)"/><path class="cls-10" d="M-641.95,2735.4c1.37-40.14,3.14-92.08,5.22-153.49v-4.34l-93.61-2.73c9.88,67,17.19,119,22.58,158.71Z" transform="translate(2236.82 -546.05)"/><path class="cls-10" d="M-267.8,2425.69c-45.16-1-99.56-2.25-160.07-3.77,0,56.59.48,109.25.88,157.34,60.67,1.69,114.75,3.29,158.87,4.74C-268.28,2535.51-268.2,2482.37-267.8,2425.69Z" transform="translate(2236.82 -546.05)"/><path class="cls-10" d="M-630.3,2412.44c1.77-49.37,3.7-101.87,5.79-157l-133.32-3.77a1073.59,1073.59,0,0,0,3.62,157.66Z" transform="translate(2236.82 -546.05)"/><path class="cls-10" d="M-636.24,2573.56c1.76-47.36,3.69-99.94,5.78-157l-123.35-3.45c1.45,13.89,3.14,27.77,5.31,41.66,6.51,43,12.29,81.64,17.43,116.4Z" transform="translate(2236.82 -546.05)"/><path class="cls-10" d="M-562.39,2418.39l-64.77-1.77c-2.25,57.08-4.26,109.66-6.11,157l57.7,1.53,145.45,4c-.65-48.17-1.13-100.83-1.37-157.34Z" transform="translate(2236.82 -546.05)"/><path class="cls-10" d="M-430,2582.87l-145.69-3.77-57.7-1.61v4.42c-2.57,61.33-4.66,113.11-6.35,153.41l70,1.84,142.72,3.86c-.8-33.88-1.53-73.29-2.25-117.77C-429.64,2610.49-429.88,2596.92-430,2582.87Z" transform="translate(2236.82 -546.05)"/><path class="cls-10" d="M-259.52,2103.46c-.81,54.27-1.61,107.09-2.33,158.06,41.54,1.29,75.69,2.41,99.88,3.3a1434.51,1434.51,0,0,0,2.81-159.27Z" transform="translate(2236.82 -546.05)"/><path class="cls-10" d="M-261.93,2264.58c-.57,37.32-1.13,73.69-1.61,108.85,0,16.78,0,33.15-.48,49.37,35.11,1,64.28,2.09,86.14,2.89,6.75-53.38,12.29-107.17,16.07-159.11C-186.32,2266.26-220.39,2265.54-261.93,2264.58Z" transform="translate(2236.82 -546.05)"/><path class="cls-10" d="M-431.65,2260.56l-117.48-3-71.76-1.93c-2.17,55.07-4.18,107.57-6.11,157l64.28,1.68,130.75,3.61C-431.73,2368.13-431.81,2315.47-431.65,2260.56Z" transform="translate(2236.82 -546.05)"/><path class="cls-10" d="M-624.43,2251.33c1.93-50.41,3.86-102.92,5.79-157l-121.75-3.45A1384.18,1384.18,0,0,0-757.66,2248Z" transform="translate(2236.82 -546.05)"/><path class="cls-10" d="M-266.19,2264.49c-46.05-1-100.93-2.32-161.44-3.85V2417.9l160.07,4.74c0-16.06,0-32.51.4-49.29C-267.08,2338.27-266.68,2301.9-266.19,2264.49Z" transform="translate(2236.82 -546.05)"/><path class="cls-10" d="M-717.73,1278.7c1.93-14.29,3.78-27.7,5.55-40.14,3.53-25.29,6.67-46.48,9.16-62.78A220,220,0,0,0-780.25,1232c-13.9,16.06-27,30.75-39.29,44.48C-793.91,1277-759.27,1277.73-717.73,1278.7Z" transform="translate(2236.82 -546.05)"/><path class="cls-10" d="M-742.8,1480.19q2.82-24.07,5.55-48.17c-55-1.68-101.5-3.13-135.81-4.33l86.47,98.74L-779,1535l33.75-35.32C-744.33,1493.2-743.6,1486.69-742.8,1480.19Z" transform="translate(2236.82 -546.05)"/><path class="cls-10" d="M-875,1425.76c34.56.65,82,1.69,138.22,3,6.43-54.26,12.86-104.36,18.64-147-42.27-1.29-77.38-2.41-103-3.37-46.85,52.17-79.87,86.13-90.64,97l-3.94,4Z" transform="translate(2236.82 -546.05)"/><path class="cls-10" d="M-732.67,1428.89c42.18,1,89.27,2.17,139.5,3.46.56-15,1.12-29.79,1.69-43.92q2.4-57.08,4.26-102.75l-127.53-3.29C-720.14,1324.61-726.32,1374.63-732.67,1428.89Z" transform="translate(2236.82 -546.05)"/><path class="cls-6" d="M-426.27,2099.45h-4.18c-.56,54-1,106.52-1.12,157.18h4C-427.31,2206-426.91,2153.47-426.27,2099.45Z" transform="translate(2236.82 -546.05)"/><path class="cls-6" d="M-417.51,1586.32c0,8.43-.64,16.85-1,25.44h3.69c0-9,.57-17.74.89-26.49Z" transform="translate(2236.82 -546.05)"/><path class="cls-6" d="M-418.63,1615.86c-1.85,49.61-3.54,102.19-5.15,157h4c1.53-54.91,3.14-107.49,4.82-157.1Z" transform="translate(2236.82 -546.05)"/><path class="cls-6" d="M-423.86,1777c-1.44,50.58-2.81,103.08-3.93,157.11h4.17q1.69-81.09,3.78-157.11Z" transform="translate(2236.82 -546.05)"/><path class="cls-6" d="M-396.37,1180.6c0-5.54.4-9.88.56-12.93a29.67,29.67,0,0,0,0-4.41,31.28,31.28,0,0,1-.48,4.41c-.49,3-.49,7.31-.89,12.93-.72,11.56-1.77,28.26-3.13,49.77-1,16.05-2.09,34.92-3.3,56.19h2.74c1-21.27,1.84-40.14,2.57-56.19C-397.66,1208.94-396.86,1192.16-396.37,1180.6Z" transform="translate(2236.82 -546.05)"/><path class="cls-6" d="M-411.24,1437.24h3.05c.4-8,.73-16,1.05-24.08,2.17-46.72,4.1-87.9,5.7-122.82h-2.41c-1.85,34.92-4,76.1-6.27,122.74C-410.44,1421.19-410.84,1429.21-411.24,1437.24Z" transform="translate(2236.82 -546.05)"/><path class="cls-6" d="M-423.7,1938.25h-4.17q-.74,39.66-1.45,80.28-.57,38.92-1.05,76.9h4.18q.48-38.05,1.05-77Q-424.42,1977.91-423.7,1938.25Z" transform="translate(2236.82 -546.05)"/><path class="cls-6" d="M-417.43,1582.7l3.7-1c1.77-50.33,3.61-97.38,5.38-140.4h-3C-413.41,1484.53-415.42,1532-417.43,1582.7Z" transform="translate(2236.82 -546.05)"/><path class="cls-6" d="M-427.63,2260.64h-4V2417.9h3.7C-427.95,2368.21-427.87,2315.55-427.63,2260.64Z" transform="translate(2236.82 -546.05)"/><path class="cls-6" d="M-431.49,2421.84c0,56.19.72,109.25,1.37,157.34H-427c-.4-48.17-.72-100.75-.88-157.34Z" transform="translate(2236.82 -546.05)"/><path class="cls-6" d="M-423.21,2856.7c0-11.64-.41-28.34-.73-49.94,0-17.42-.56-38.13-.88-61.49h-2.33c.56,23.36,1,44.15,1.61,61.57.64,21.52,1.12,38.3,1.52,49.86,0,5.54.4,9.87.48,12.92v3.13h0v-3.13A98.64,98.64,0,0,0-423.21,2856.7Z" transform="translate(2236.82 -546.05)"/><path class="cls-6" d="M-426.91,2582.87H-430c0,13.81.4,27.38.56,40.14.72,44.47,1.44,83.89,2.25,117.77h2.41c-.48-33.88-1.05-73.38-1.69-117.93C-426.67,2610.49-426.83,2596.92-426.91,2582.87Z" transform="translate(2236.82 -546.05)"/><path class="cls-6" d="M-256.87,1939.05c.72-46.64,1.36-92.07,1.93-136a65.1,65.1,0,0,1-4.1-8c-.73,46.4-1.45,94.56-2.17,144Z" transform="translate(2236.82 -546.05)"/><path class="cls-6" d="M-256.95,1942.26h-4.34c-.48,32.92-1,66.23-1.45,100.19-.4,19.43-.72,38.61-1,57.8h4.26q0-28.66.88-57.8C-258,2008.49-257.43,1975.18-256.95,1942.26Z" transform="translate(2236.82 -546.05)"/><path class="cls-6" d="M-256.23,1440.94v.72h3v-.81c0-38.45-.88-73.29-1.28-103.87,0-14.69-.48-28.34-.81-41a88,88,0,0,1-1.76,13.72v27.38C-257,1367.64-256.23,1402.8-256.23,1440.94Z" transform="translate(2236.82 -546.05)"/><path class="cls-6" d="M-256.23,1510.62h3.3c0-22.88,0-44.88-.41-65.75h-2.89Z" transform="translate(2236.82 -546.05)"/><path class="cls-6" d="M-258.16,1209.1a94.9,94.9,0,0,0-.4-11.56l-.48.56v11.08c0,11.48,0,28.17.72,49.53v11.8a90.32,90.32,0,0,1,2.09,11.88c0-8.43,0-16.62-.64-24.08C-257.27,1237.27-257.76,1220.66-258.16,1209.1Z" transform="translate(2236.82 -546.05)"/><path class="cls-6" d="M-259.52,2103.46h-4.26c-.89,54.19-1.69,107.09-2.33,158h4.26C-261.13,2210.55-260.33,2157.41-259.52,2103.46Z" transform="translate(2236.82 -546.05)"/><path class="cls-6" d="M-262.42,2875.48c0-11.48-.4-28.18-.72-49.53s-.8-47-1-76.9h-2.33c0,29.94,1,55.79,1.68,76.9s1.21,38.05,1.53,49.61c0,5.54.4,9.8.48,12.85s0,4.41,0,4.41v-4.41C-262.74,2885.52-262.34,2881-262.42,2875.48Z" transform="translate(2236.82 -546.05)"/><path class="cls-6" d="M-264.27,2425.77H-268c-.4,56.68-.48,109.82,0,158.31h3.21C-264.91,2535.59-264.27,2482.45-264.27,2425.77Z" transform="translate(2236.82 -546.05)"/><path class="cls-6" d="M-264.91,2587h-3.21v56.83c0,37.89.88,72.25,1.28,102.36h2.41c0-30.27-.8-64.23-.72-102.44Q-264.91,2616.51-264.91,2587Z" transform="translate(2236.82 -546.05)"/><path class="cls-6" d="M-261.93,2264.58h-4.26c-.49,37.32-.89,73.77-1.21,108.85,0,16.78,0,33.15-.4,49.29H-264c0-16,0-32.59.48-49.37C-263.06,2338.27-262.5,2301.9-261.93,2264.58Z" transform="translate(2236.82 -546.05)"/><path class="cls-6" d="M-614.63,2094.47h-4c-1.93,54.1-3.86,106.61-5.79,157h3.7Q-617.85,2175.76-614.63,2094.47Z" transform="translate(2236.82 -546.05)"/><path class="cls-6" d="M-593.17,1432.35h3c.56-15,1.13-29.79,1.61-43.84,1.29-38,2.49-72.24,3.54-102.83h-2.25c-1.21,30.34-2.66,64.7-4.26,102.75C-592,1402.8-592.61,1417.33-593.17,1432.35Z" transform="translate(2236.82 -546.05)"/><path class="cls-6" d="M-606.35,1772.08c-1.93,50.65-4,103.15-6.11,157h4.1c1.93-53.87,3.86-106.45,5.79-157Z" transform="translate(2236.82 -546.05)"/><path class="cls-6" d="M-600.08,1611c-1.93,49.85-4,102.35-6.11,157.1h3.7c2.09-54.75,4-107.25,5.78-157Z" transform="translate(2236.82 -546.05)"/><path class="cls-6" d="M-583.93,1207.65c-.88,20.47-1.93,45.44-3.13,74.18h2.17c1-28.66,1.84-53.63,2.57-74.1s1.12-37.81,1.44-49.21v-6.74h-.4v6.82C-582.24,1170-583,1186.06-583.93,1207.65Z" transform="translate(2236.82 -546.05)"/><path class="cls-6" d="M-593.33,1436.44c-2,51.78-4.26,109-6.59,170.51h3.37c2.25-61.49,4.34-118.73,6.27-170.51Z" transform="translate(2236.82 -546.05)"/><path class="cls-6" d="M-608.52,1933.35h-4.1q-1,25.94-2,52.1-1.92,53.38-3.85,104.92h3.93q2.1-51.61,4.1-104.92Q-609.8,1959.2-608.52,1933.35Z" transform="translate(2236.82 -546.05)"/><path class="cls-6" d="M-633.43,2577.73h-3v4.34c-2.09,61.41-3.86,113.19-5.23,153.49h1.85c1.69-40.14,3.78-92.08,6.35-153.41A40.73,40.73,0,0,1-633.43,2577.73Z" transform="translate(2236.82 -546.05)"/><path class="cls-6" d="M-630.46,2416.54c-2.09,57.08-4,109.66-5.78,157h3c1.85-47.36,3.86-99.94,6.11-157Z" transform="translate(2236.82 -546.05)"/><path class="cls-6" d="M-624.51,2255.42c-2.09,55.15-4,107.65-5.79,157h3.3c1.93-49.37,3.94-101.87,6.11-156.94Z" transform="translate(2236.82 -546.05)"/><path class="cls-6" d="M-642.67,2762.93c-.64,21.2-1.13,37.73-1.53,49.21v17.1a35.6,35.6,0,0,1,.4-4.33c.4-2.89,0-7.31.73-12.77.48-11.4,1.28-27.93,2.25-49.21,0-7.14.64-15.09,1-23.28h-2.09C-641.95,2747.84-642.43,2755.71-642.67,2762.93Z" transform="translate(2236.82 -546.05)"/><path class="cls-6" d="M-717.73,1278.7h3.46c1.77-14.13,3.53-27.54,5.06-40.14,3.38-25.61,6.11-47.21,8-64.22l-2,.88c-2.49,16-5.63,37.49-9.16,62.78C-714.27,1251-715.8,1264.41-717.73,1278.7Z" transform="translate(2236.82 -546.05)"/><path class="cls-6" d="M-733.16,1432.43h-4.09q-2.75,23.35-5.55,48.16c-.8,6.5-1.53,13-2.25,19.51l.81-.8s0,10,.72,24.72c1.61-14,3.21-28.42,4.82-43C-736.85,1464.3-734.92,1448.16-733.16,1432.43Z" transform="translate(2236.82 -546.05)"/><path class="cls-6" d="M-714.75,1282.39h-3.46c-5.78,42.71-12.21,92.72-18.64,147h4.18C-726.32,1374.63-720.14,1324.61-714.75,1282.39Z" transform="translate(2236.82 -546.05)"/><path class="cls-6" d="M-255.51,1294.51l105.59,2.41-1.2-3.05-104.47-3.13A29.34,29.34,0,0,1-255.51,1294.51Z" transform="translate(2236.82 -546.05)"/><path class="cls-6" d="M-718.21,1281.83h3.46l127.53,3.69H-585l144.64,4,36.56,1h2.41l57.46,1.44a13.41,13.41,0,0,1,.4-4l-57.7-1.61h-2.33l-36.72-1-144.65-3.77h-2.16c-46.77-1.21-89.76-2.25-127.29-3h-3.38c-41.54-1-76.18-1.69-101.81-2.09l-1.69,1.84C-795.59,1279.42-760.48,1280.54-718.21,1281.83Z" transform="translate(2236.82 -546.05)"/><path class="cls-6" d="M-509.2,1438.77l97.8,2.49h3l45.81,1.2a57.62,57.62,0,0,1,10.6-3.69l-56.25-1.53h-3.05l-97.8-2.33-81.08-2.08h-3c-50.23-1.29-97.32-2.49-139.5-3.45h-4.18c-56.25-1.37-103.66-2.41-138.22-3.06l2,2.25c34.31,1.21,80.84,2.65,135.81,4.34h4.09l139.83,4h3.05Z" transform="translate(2236.82 -546.05)"/><path class="cls-6" d="M-332,1442.94h6a32.1,32.1,0,0,1-8.92-3.13A24.43,24.43,0,0,1-332,1442.94Z" transform="translate(2236.82 -546.05)"/><path class="cls-6" d="M-256.23,1441.66l-50.87-1.53a29.29,29.29,0,0,1-7,2.89,22.78,22.78,0,0,1-3.37.56l61.23,1.45h3c54.65,1.28,99.25,2.25,129.38,2.73v-1.85c-30.13-1.12-74.65-2.57-129.14-4.25Z" transform="translate(2236.82 -546.05)"/><path class="cls-6" d="M-596.71,1611.52l100.69,2.73,77.39,2h3.69c56.66,1.44,109.37,2.81,155.74,3.85v-3.45l-155.58-5.14h-3.69l-77.47-2.08-100.61-2.65h-3.37l-126-3.29c.56,1.28,1.12,2.4,1.76,3.61l124.08,3.53Z" transform="translate(2236.82 -546.05)"/><path class="cls-6" d="M-602.57,1772.08l93.21,2.49,85.5,2.24h4c58.1,1.53,111.78,2.81,158.55,3.94v-3.46l-158.55-4.49h-4l-85.42-2.33-93.29-2.41h-3.7l-64.29-1.6-.72,3.85,64.29,1.77Z" transform="translate(2236.82 -546.05)"/><path class="cls-6" d="M-608.52,1933.35l85.9,2.33,94.75,2.49h4.17c60,1.52,115.16,2.89,162.41,3.93h4.34l69.19,1.53a8.42,8.42,0,0,0-.81-2.65l-68.3-2.09h-4.34l-162.41-4.73h-4.17l-94.67-2.57-85.9-2.25h-4.1l-91.28-2.25c-.41,1.21-.73,2.49-1,3.77l92.17,2.57Z" transform="translate(2236.82 -546.05)"/><path class="cls-6" d="M-614.63,2094.47l78.75,2.09,105.43,2.81h4.18c60.43,1.52,115.64,2.89,162.49,3.93h4.26l100.36,2.09a16.85,16.85,0,0,1,0-2l-100.2-3.29h-4.26l-162.49-4.74h-4.18l-105.43-2.89-78.75-2h-3.93l-121.26-3a19.13,19.13,0,0,1-.65,3.62l121.75,3.45Z" transform="translate(2236.82 -546.05)"/><path class="cls-6" d="M-624.51,2255.42h3.62l71.75,1.93,117.49,3.05h4c60.51,1.53,115.39,2.81,161.44,3.85h4.25c41.55,1,75.62,1.69,99.89,2v-1.77c-24.11-.88-58.34-2-99.89-3.29h-4.25c-46.13-1.44-101-3-161.44-4.73h-4l-117.49-3.21-71.67-1.93h-3.7L-757.75,2248v3.61Z" transform="translate(2236.82 -546.05)"/><path class="cls-6" d="M-630.46,2416.54h3.3l64.77,1.77,130.9,3.45h3.62c60.51,1.52,114.91,2.81,160.07,3.77h3.53c35,.8,64.29,1.36,86,1.69v-1.77c-21.78-.8-51-1.85-86.15-2.89h-3.77l-160.08-4.74H-432l-130.34-3.53-64.29-1.68h-3.3l-124.55-3.3a12.18,12.18,0,0,0,.4,3.78Z" transform="translate(2236.82 -546.05)"/><path class="cls-6" d="M-636.4,2577.65h3l57.7,1.61L-430,2583h3.13l158.79,3.7h3.21L-202,2588a18.22,18.22,0,0,0,0-2.09l-63.24-2.08h-3.21c-44.12-1.45-98.2-3.05-158.87-4.74h-3.14l-145.44-4-57.7-1.53h-3l-94.83-2.41.57,3.94Z" transform="translate(2236.82 -546.05)"/><path class="cls-6" d="M-641.95,2739.57h1.85l70.07,1.93,142.88,3.69H-425c60.19,1.53,114.19,2.81,158.38,3.77h2.33l32.15.73a4.3,4.3,0,0,1,.56-2.57l-32.95-1h-2.41l-158.3-4.73h-2.41l-142-3.93-70-1.85h-2.33l-66.13-1.69.48,4Z" transform="translate(2236.82 -546.05)"/><path class="cls-6" d="M-552.91,1152.58l68.06.48c26.6,0,50.63,0,68.06-.8,8.76,0,16.08-.64,20.66-1a26.59,26.59,0,0,0,7.47-1h0a14.85,14.85,0,0,0-5.14-.48v.4l-155.74-.64H-553c-8.76,0-16.07.64-20.65,1a28,28,0,0,0-7.56,1h.4C-578.87,1152.26-568.66,1152.42-552.91,1152.58Z" transform="translate(2236.82 -546.05)"/><path class="cls-6" d="M-457.69,1584.79a112.64,112.64,0,0,1-48.61-18.86c-11.17-7.63-16.88-14-17.44-13.49a18,18,0,0,0,3.53,4.82,88.42,88.42,0,0,0,12.14,11.07,104.55,104.55,0,0,0,90.56,18l3.62-1c3.29-1,6.35-2.08,9.08-3.21a88.26,88.26,0,0,0,14.62-7.54c3.22-2.09,4.83-3.54,4.66-3.78s-7.55,4.1-20.33,8.51a72.28,72.28,0,0,1-8,2.41l-3.7,1A112.48,112.48,0,0,1-457.69,1584.79Z" transform="translate(2236.82 -546.05)"/><path class="cls-6" d="M-121.87,1523.94c0-1.2-48.22-6.1-107.2-11.08l-24.11-2h-3.29c-46-3.62-80.36-5.62-80.36-4.66s33.43,4.58,79.07,8.59l28.13,2.49c46.93,3.93,86.79,6.66,101.41,7.06A23.32,23.32,0,0,0-121.87,1523.94Z" transform="translate(2236.82 -546.05)"/><path class="cls-6" d="M-391.31,1102.17c4.82,18.22,24.75,33.87,53.52,30.5a79.45,79.45,0,0,0-7.56,24.09,83.94,83.94,0,0,0,26,72.89,114.65,114.65,0,0,0-24.11,58.6,13.94,13.94,0,0,1-.4,4,110.14,110.14,0,0,0,15.27,65.67c-12.46,15.49-25.48,32.11-25.64,51.38a35.42,35.42,0,0,0,10.69,24.48,28.71,28.71,0,0,1,6.43,4.5l2.33,2a32.1,32.1,0,0,0,8.92,3.13,25.22,25.22,0,0,0,8,0,24.18,24.18,0,0,0,3.37-.56,29.63,29.63,0,0,0,7-2.89,44.55,44.55,0,0,0,16.72-18,75.54,75.54,0,0,0,3.77-64.22,84.41,84.41,0,0,0,29.49-48.17,88,88,0,0,0,1.77-13.73,9.64,9.64,0,0,0,0-1.52v-3.77a44.66,44.66,0,0,0-.48-8,90.38,90.38,0,0,0-2-12.12A82.22,82.22,0,0,0-282.83,1229a79.18,79.18,0,0,0,19.69-26.73,48.05,48.05,0,0,1-15.11,10.28,40.64,40.64,0,0,1-14,3.29,20,20,0,0,1-3.94,0h-1.36a3.24,3.24,0,0,0,1.36-.48c.89-.48,2.09,0,3.7-.73a50.17,50.17,0,0,0,28.77-16.77,42.56,42.56,0,0,0,4.9-7.23c.48-1.76,1-3.53,1.37-5.38a83.56,83.56,0,0,0,0-33.71,51.51,51.51,0,0,0-11.25-16.06A92,92,0,0,0-284.27,1125h1.36a18.42,18.42,0,0,1,3.78,1,39.34,39.34,0,0,1,12.45,7.22,44.52,44.52,0,0,1,5.79,5.86,77.21,77.21,0,0,0-19-29.38A126.43,126.43,0,0,0-292.47,987C-304.44,1038.59-332.57,1088-391.31,1102.17Zm92.17,129.32c0,1.13-4.58,1-9.64,1.45s-9.33,1.12-9.73,0,3.54-3.86,9.4-4.26S-298.82,1230.37-299.14,1231.49Zm-14.63,127c-8-1.28-15.34-1.36-15.51-2.57a23.22,23.22,0,0,1,16.08-1.6c9,1.36,15.43,5.13,14.94,6.18s-7.15-.8-15.51-2Zm-4.58-243.56a25,25,0,0,1,16.8-1c0,1.2-7.15,2.49-15.67,5s-15.27,5.21-16.07,4.17,5.86-5.62,14.94-8.19Z" transform="translate(2236.82 -546.05)"/><path class="cls-8" d="M-517.15,769.5A140.34,140.34,0,0,0-503,805.87,130.57,130.57,0,0,0-490.15,825,131.63,131.63,0,0,0-473,842.79a144.5,144.5,0,0,0,20.25,14.13,134.81,134.81,0,0,0,21,9.63,141.21,141.21,0,0,0,38.17,8h3.53v-27s-108.4-9.47-131.22-109v4.34A145.67,145.67,0,0,0-517.15,769.5Z" transform="translate(2236.82 -546.05)"/><path class="cls-8" d="M-393.72,1149.77l1.85-47.44h-.57l1.61-162.08v-.4a99.36,99.36,0,0,1,.56-23.44l.41-38.78h-3.62a136.1,136.1,0,0,1-82-32.11A140.3,140.3,0,0,1-493,827.14a131.54,131.54,0,0,1-13-19.83,132.52,132.52,0,0,1-13.66-37.57,117.21,117.21,0,0,1-2.5-26.81,66.3,66.3,0,0,1,.49-7.31,2.29,2.29,0,0,0,0-.64v-.4l-.65.64c-6.34,16.06-17.43,49.85-9.32,77.07l-98.52,27.21L-641.15,850c0,46.56.73,99.22,3.06,131.81,4.82,69.12,73,75.78,73,75.78A165.24,165.24,0,0,0-476,1025.5s-19.77,51.06-87.43,48.89l-1.69-17s5.55,73.05,5,91.44h11l155.74.64ZM-617.36,878.36a8.83,8.83,0,0,1-8.82-8.85,8.83,8.83,0,0,1,8.82-8.82,8.85,8.85,0,0,1,8.83,8.85A8.84,8.84,0,0,1-617.36,878.36Zm16.88-20.8c-1,1.29-8-3.37-17.28-2.65s-15.67,6.27-16.8,5.14,0-2.73,3.14-5.3a22.28,22.28,0,0,1,13.58-5.86,22,22,0,0,1,13.9,3.54c2.73,2.48,3.94,4.49,3.46,5.13Zm17,83a5.9,5.9,0,0,1-4-3.45,15.54,15.54,0,0,1,.81-10c1.85-6.34,3.77-13,5.86-20a356.35,356.35,0,0,1,17.36-50.41,348.06,348.06,0,0,1-13.5,51.7c-2.17,6.9-4.26,13.49-6.19,19.83a13.5,13.5,0,0,0-1.28,8c.48,1.68,2.73,2,5.14,2.16a58.09,58.09,0,0,1,15.19,1.85,55.53,55.53,0,0,1-15.27,1,15.09,15.09,0,0,1-4.1-.72Zm36.32,33a25.46,25.46,0,0,1-30.93-8.67c19,0,54.16-22.79,44.84-16,0-.24,5.86,15.89-13.91,24.72Zm30-96.33a8.84,8.84,0,0,1-8.83-8.84,8.84,8.84,0,0,1,8.83-8.82,8.83,8.83,0,0,1,8.82,8.85A8.83,8.83,0,0,1-517.23,877.23Zm19.93-20.31c-1,1.29-8-3.37-17.28-2.65s-15.67,6.26-16.8,5.14.41-2.81,3.14-5.3A22.39,22.39,0,0,1-515,848.49a22.63,22.63,0,0,1,13.9,3.61C-498.11,853.79-496.9,855.88-497.3,856.92Z" transform="translate(2236.82 -546.05)"/><path class="cls-6" d="M-617.84,860.69a8.84,8.84,0,0,0-8.92,8.75,8.83,8.83,0,0,0,8.76,8.91,8.83,8.83,0,0,0,8.92-8.75v-.16A8.76,8.76,0,0,0-617.84,860.69Z" transform="translate(2236.82 -546.05)"/><path class="cls-6" d="M-604.26,852.75a22,22,0,0,0-13.58-3.86,22.26,22.26,0,0,0-13.26,5.54c-2.81,2.57-3.62,4.82-3.13,5.3s7.47-4.49,16.79-5.14,16.07,3.94,17.28,2.65S-601.21,854.91-604.26,852.75Z" transform="translate(2236.82 -546.05)"/><path class="cls-6" d="M-517.39,859.65a8.84,8.84,0,0,0-9,8.67,8.83,8.83,0,0,0,8.68,9,8.82,8.82,0,0,0,9-8.67,1,1,0,0,0,0-.24A8.75,8.75,0,0,0-517.39,859.65Z" transform="translate(2236.82 -546.05)"/><path class="cls-6" d="M-501.16,851.7a22.63,22.63,0,0,0-13.9-3.61,22.39,22.39,0,0,0-13.26,5.62c-2.73,2.49-3.62,4.74-3.14,5.3s7.48-4.5,16.8-5.14,16.07,3.93,17.28,2.65S-498.11,853.79-501.16,851.7Z" transform="translate(2236.82 -546.05)"/><path class="cls-6" d="M-579.35,938c-2.41,0-4.66-.48-5.14-2.17a13.48,13.48,0,0,1,1.28-8c1.93-6.35,4-12.93,6.19-19.83a348.06,348.06,0,0,0,13.5-51.7,356.35,356.35,0,0,0-17.36,50.41c-2.09,7-4,13.65-5.86,20a15.54,15.54,0,0,0-.81,10,5.9,5.9,0,0,0,4,3.45,15.63,15.63,0,0,0,4.1,0,55.15,55.15,0,0,0,15.27-1A58.23,58.23,0,0,0-579.35,938Z" transform="translate(2236.82 -546.05)"/><path class="cls-4" d="M-578.14,964.89a25.46,25.46,0,0,0,30.93,8.67c19.77-8.83,13.91-25,13.91-25C-524,942.1-559.18,964.73-578.14,964.89Z" transform="translate(2236.82 -546.05)"/><path class="cls-9" d="M-476.33,1026.15a165.33,165.33,0,0,1-89.12,32.11l1.69,17C-496.1,1077.2-476.33,1026.15-476.33,1026.15Z" transform="translate(2236.82 -546.05)"/><path class="cls-6" d="M-532,812.69c-8-27.21,3-61.25,9.32-77.07l.65-.64v.4a5.83,5.83,0,0,1,.4-1.84V739c22.82,99.55,131.22,109,131.22,109v27a140.09,140.09,0,0,0,22.9-.56,52.05,52.05,0,0,0,7.24-.88,10.5,10.5,0,0,1,2.57,0,9.42,9.42,0,0,1-2.41.88,70.3,70.3,0,0,1-7.15,1.61,117.47,117.47,0,0,1-23.23,1.76l-.4,38.78a59,59,0,0,1,1.93-7.39,29.25,29.25,0,0,1,21.94-20,24.51,24.51,0,0,1,25.87,19.75,30.33,30.33,0,0,1-14.54,30.43,37.82,37.82,0,0,1-24.11,4.57v1.29a16,16,0,0,0,2.25,11.23,16.07,16.07,0,0,0,22.15,5.09,15.76,15.76,0,0,0,2.36-1.79,16.11,16.11,0,0,0,5.22-10.2,33.75,33.75,0,0,0-1.61-11.24s4.5,3.21,4.58,11.4a18.27,18.27,0,0,1-5.54,12.85,19.22,19.22,0,0,1-27.16.22,19.26,19.26,0,0,1-3.3-4.32,18.28,18.28,0,0,1-1.84-13.89,4.52,4.52,0,0,1,0-1,44.62,44.62,0,0,1-8-2.25l-.8-.88-1.61,162.08H-392c58.75-14.13,86.47-63.58,99.33-115.28.8-3.45,1.6-6.9,2.33-10.35-.48,1-1,2.08-1.53,3a136.59,136.59,0,0,1-12.37,19.82,29.55,29.55,0,0,1-5.71,6.51c-.64-.49,7.07-10,15.43-27.62a156.32,156.32,0,0,0,7.07-17.34,474.28,474.28,0,0,0,4.82-88.78v-4.74a167.49,167.49,0,0,0-12.86-35.88C-304.2,814.38-312,805-311.6,804.5a30.75,30.75,0,0,1,5.71,6.34,141.24,141.24,0,0,1,12.78,19.67,159.15,159.15,0,0,1,9.72,22v-8h0v-2.25h0a271,271,0,0,0-4.5-28c-38.33-143.93-162.32-169.54-186.75-169.3-26.28,0-72.33-14-138.54,58s-28.77,147.71-28.77,147.71h0L-631,840.06Z" transform="translate(2236.82 -546.05)"/><path class="cls-6" d="M-339.88,1441.5a17.83,17.83,0,0,1-3.62-3.94,61.66,61.66,0,0,0-8.44,1.29,59.3,59.3,0,0,0-28.44,16.05,58.16,58.16,0,0,0-15.51,40.86l14.54-5.86a72.3,72.3,0,0,0-7.07,24.49,29.49,29.49,0,0,0,21.54-9.88l-4,18.79a67.26,67.26,0,0,0,37.45-68.16,46.26,46.26,0,0,0-2.25-5.45c-2.25-4.66-4.26-7.23-3.78-8s2,.88,4.18,3.45a9.07,9.07,0,0,0-.4-1.53A20.38,20.38,0,0,1-339.88,1441.5Z" transform="translate(2236.82 -546.05)"/><path class="cls-5" d="M-344.62,1433.71c-.57.4,0,2,1.28,3.85a17.83,17.83,0,0,0,3.62,3.94,21.11,21.11,0,0,0,4.18,2.65c2.25,1,4,1.36,4.34.72s0-.88-.65-1.61a23.84,23.84,0,0,0-2.89-3l-2.33-2a28.71,28.71,0,0,0-6.43-4.5A1.1,1.1,0,0,0-344.62,1433.71Z" transform="translate(2236.82 -546.05)"/><path class="cls-5" d="M-313.2,1354.64a23.22,23.22,0,0,0-16.08,1.6c0,1.21,7.16,1.29,15.51,2.57s15,3.13,15.51,2S-304.44,1355.68-313.2,1354.64Z" transform="translate(2236.82 -546.05)"/><path class="cls-5" d="M-318.51,1233c.4,1,4.66,0,9.73,0s9.4,0,9.64-1.45-4.1-3.21-10-2.73S-319,1232-318.51,1233Z" transform="translate(2236.82 -546.05)"/><path class="cls-5" d="M-317.22,1118.94c8.52-2.48,15.67-3.77,15.67-5a25,25,0,0,0-16.8,1c-9.08,2.57-15.26,7.23-14.7,8S-325.74,1121.35-317.22,1118.94Z" transform="translate(2236.82 -546.05)"/><path class="cls-6" d="M-367,876a69.7,69.7,0,0,0,7.15-1.61,9.42,9.42,0,0,0,2.41-.88H-360c-1.61,0-4.1.64-7.23.88a140.24,140.24,0,0,1-22.91.56h-3.53a141.57,141.57,0,0,1-38.17-8,134.86,134.86,0,0,1-21-9.64A143.67,143.67,0,0,1-473,843.19a131.63,131.63,0,0,1-17.11-17.82A130,130,0,0,1-503,806.27a140.34,140.34,0,0,1-14.14-36.37,146.26,146.26,0,0,1-3.78-26.17v-9.79a5.83,5.83,0,0,0-.4,1.84,2.36,2.36,0,0,1,0,.65,63.61,63.61,0,0,0-.48,7.3,116.64,116.64,0,0,0,2.49,26.81,132.52,132.52,0,0,0,13.66,37.57,130.83,130.83,0,0,0,13,19.83A139.7,139.7,0,0,0-475,846.33a134.67,134.67,0,0,0,21,14.53,137,137,0,0,0,61,17.34h3.62A118.07,118.07,0,0,0-367,876Z" transform="translate(2236.82 -546.05)"/><path class="cls-6" d="M-305.09,810.52a30.17,30.17,0,0,0-5.7-6.34c-.65.48,7.15,9.87,16.07,27.37a168.31,168.31,0,0,1,12.86,35.89,164.77,164.77,0,0,1,4.74,37.33,170.59,170.59,0,0,1-9.4,56.19,160,160,0,0,1-7.08,17.34c-8,17.58-16.07,27.13-15.42,27.62a29.51,29.51,0,0,0,5.7-6.51,135.36,135.36,0,0,0,12.38-19.83c.56-1,1-2.08,1.52-3.05a158.54,158.54,0,0,0,10.37-114c-1-3.61-2.17-7.06-3.3-10.35a159.15,159.15,0,0,0-9.72-22A139.86,139.86,0,0,0-305.09,810.52Z" transform="translate(2236.82 -546.05)"/><path class="cls-6" d="M-266.19,1133.15a39.5,39.5,0,0,0-12.46-7.22,18.25,18.25,0,0,0-3.78-1h-1.36a92,92,0,0,1,15.59,10.51,51.35,51.35,0,0,1,11.25,16.06v.56a44.53,44.53,0,0,1,3.45,24.08,46.83,46.83,0,0,1-2.81,9.56,37,37,0,0,1-2.49,5,42.56,42.56,0,0,1-4.9,7.23,50.24,50.24,0,0,1-28.77,16.78,12,12,0,0,0-3.7.72c-.8.24-1.36,0-1.36.48s.48,0,1.36,0a20,20,0,0,0,3.94,0,40.64,40.64,0,0,0,14-3.29,48.05,48.05,0,0,0,15.11-10.28,30.94,30.94,0,0,0,2.33-2.25c.56-.64,1-1.36,1.53-2l.48-.56a49.51,49.51,0,0,0,6.11-10.2,45.59,45.59,0,0,0,3.29-11.08A47.51,47.51,0,0,0-260.65,1139,45.8,45.8,0,0,0-266.19,1133.15Z" transform="translate(2236.82 -546.05)"/><path class="cls-6" d="M-339.48,1442.22c-.48.48,1.53,3,3.78,8a44.76,44.76,0,0,1,2.25,5.46,51,51,0,0,1,2.65,13.56A49,49,0,0,1-334,1488.7c-1,2.41-1.84,4.33-2.49,5.62s-.88,2.17-.64,2.33.88,0,2-1.37a28.35,28.35,0,0,0,3.78-5.3,40.68,40.68,0,0,0-1.77-41.26,21.14,21.14,0,0,0-2.17-2.73C-337.47,1442.94-339.24,1442-339.48,1442.22Z" transform="translate(2236.82 -546.05)"/><path class="cls-8" d="M-382.07,943.54c2.41-7,7-9.15,7.07-8.75a50.72,50.72,0,0,0-4.26,9.15,37.81,37.81,0,0,0,24.11-4.57,30.33,30.33,0,0,0,14.54-30.43,24.5,24.5,0,0,0-25.87-19.75,29.25,29.25,0,0,0-21.94,20,59,59,0,0,0-1.93,7.39,99.36,99.36,0,0,0-.56,23.44v.4l.8.88A45.08,45.08,0,0,0-382.07,943.54Zm16.07-41a12.49,12.49,0,0,1,10.53,1.76,14.29,14.29,0,0,1,4.66,12.13,19.62,19.62,0,0,1-4.34,11.8,14.71,14.71,0,0,1-9.08,5.13c-6.11.73-9.08-2.48-8.52-2.89s3.38.73,8-.72a14,14,0,0,0,9-13.48,10.61,10.61,0,0,0-2.49-8,9.5,9.5,0,0,0-6.83-1.85c-4.67.56-8,1.93-8,1.13s1.12-3.22,6.67-5Z" transform="translate(2236.82 -546.05)"/><path class="cls-9" d="M-365.76,906.13a9.44,9.44,0,0,1,6.83,1.85,10.53,10.53,0,0,1,2.49,8,13.94,13.94,0,0,1-9,13.48c-4.34,1.45-7.39,0-8,.72s2.41,3.62,8.52,2.89a14.71,14.71,0,0,0,9.08-5.13,19.62,19.62,0,0,0,4.34-11.8A14.32,14.32,0,0,0-356.19,904a12.5,12.5,0,0,0-10.53-1.76c-5.55,1.76-8,4.17-7.56,4.73S-370.42,906.69-365.76,906.13Z" transform="translate(2236.82 -546.05)"/><path class="cls-5" d="M-382.07,943.54a6,6,0,0,0,0,1,18.28,18.28,0,0,0,1.85,13.89,19.21,19.21,0,0,0,26.13,7.39,19.29,19.29,0,0,0,4.32-3.29,18.28,18.28,0,0,0,5.55-12.85c0-8-4.42-11.8-4.58-11.4a34,34,0,0,1,1.61,11.24,16.07,16.07,0,0,1-5.23,10.2,16.09,16.09,0,0,1-22.71-.94,16.53,16.53,0,0,1-1.8-2.36,16,16,0,0,1-2.25-11.23v-1.29a50.72,50.72,0,0,1,4.26-9.15S-379.66,936.56-382.07,943.54Z" transform="translate(2236.82 -546.05)"/><path class="cls-6" d="M-556.45,2861.59h0c23.31,2.49,48.22,5.3,74.57,8,60.19,7,114.6,13.89,154,19.11l14.55,1.84,32.14,4.18,12.7,1.44a16.15,16.15,0,0,0,4.5,0,24.26,24.26,0,0,0-4.34-1L-281,2892.9c-8-1.44-19-3.21-32.14-5.22l-14.23-2.16-6-.89c-25.16-3.69-55.77-8-89.92-12.36h0c-18.49-2.33-37.77-4.74-57.78-7-60.27-7-114.91-12.13-154.53-15.34-19.85-1.6-35.84-2.73-46.93-3.37h-2.89l-9.89-.48a21.15,21.15,0,0,0-4.5,0,18,18,0,0,0,4.42.8l12.7,1.45h2.17l44.68,4.49C-613.66,2855.81-586.5,2858.38-556.45,2861.59Z" transform="translate(2236.82 -546.05)"/><path class="cls-5" d="M-793.26,1141.34s-109.37-20.95-266.55-163.52S-1294.3,642.1-1313,643.55s-101.57-34.12-247.42,308.18-82.45,419-51.51,417.44,239.38-65.91,371-54.75,302.23,74.74,302.23,74.74Z" transform="translate(2236.82 -546.05)"/><path class="cls-11" d="M-793.26,1141.34s-109.37-20.95-266.55-163.52S-1294.3,642.1-1313,643.55s-101.57-34.12-247.42,308.18-82.45,419-51.51,417.44,239.38-65.91,371-54.75,302.23,74.74,302.23,74.74Z" transform="translate(2236.82 -546.05)"/><path class="cls-5" d="M-557.09,1334.57-592.21,1406l-16.07,32.12A92,92,0,0,1-727,1482.2l-235.29-74.42,126.89-313.08L-599.12,1212A92,92,0,0,1-557.09,1334.57Z" transform="translate(2236.82 -546.05)"/><path class="cls-5" d="M-688.24,1451l-70.15,147.47-37.44-9.23-236.82,203.9-71.52-130.61s141.51-65.75,166.58-117.53-5.94-62.53-5.94-62.53L-878.2,1404Z" transform="translate(2236.82 -546.05)"/><path class="cls-6" d="M-1547.75,973.08c-77.54,185.44-107.35,349.53-66.53,366.55s136.61-119.46,214.23-305.06,107.2-349.28,67-366.3S-1470.12,787.72-1547.75,973.08Z" transform="translate(2236.82 -546.05)"/><polygon class="cls-10" points="1702.63 889.67 1638.9 871.61 1675.87 796.3 1724.01 824.4 1702.63 889.67"/><polygon class="cls-6" points="1336.2 884.93 1508.97 988.25 1528.97 946.26 1336.2 884.93"/><polygon class="cls-6" points="1675.87 796.3 1638.9 871.61 1652 875.38 1681.58 799.68 1675.87 796.3"/><path class="cls-6" d="M-952.53,1384.26s-44.6-14.93-43.16-14.53,138.22-251.83,138.22-251.83l10.85,4.9-101.49,253.11" transform="translate(2236.82 -546.05)"/><path class="cls-6" d="M-604,1360.74c-.88,2.09-32.71-9.23-71.12-25.37s-68.94-30.74-68.06-32.75,32.71,9.23,71.2,25.29S-603.14,1358.65-604,1360.74Z" transform="translate(2236.82 -546.05)"/><path class="cls-6" d="M-585.7,1316c-.88,2-29.73-9.23-64.28-25s-62-30.35-61.08-32.11,29.82,9.23,64.29,25S-584.89,1313.94-585.7,1316Z" transform="translate(2236.82 -546.05)"/><path class="cls-6" d="M-627.16,1407.78c0,1.12-8-.4-19.93-3.77-6-1.69-13.18-3.78-21.14-6.26s-16.07-6.51-24.83-10.12c-35-15.09-61.79-30-61-32.11s29.49,9.47,64.29,24.08c8.68,3.62,16.79,8,24.11,10.6s14.46,5.46,20.17,8C-633.91,1403.29-626.92,1406.74-627.16,1407.78Z" transform="translate(2236.82 -546.05)"/><path class="cls-5" d="M-1380.12,927.65s-96.43-56.2-144.24,73.13,51.91,147.06,51.91,147.06A849.42,849.42,0,0,0-1380.12,927.65Z" transform="translate(2236.82 -546.05)"/><path class="cls-6" d="M-1284,772.79a145.52,145.52,0,0,1-3,24.08c-2.58,16.06-6.19,38.38-11.41,66.31-3.62,13.81-7.56,28.9-11.82,45-2.09,8-4.34,16.46-6.59,25-1.12,4.34-2.33,8.67-3.53,13.09s-3,8.75-4.5,13.17c-6.27,17.74-12.94,36.36-19.77,55.63-1.69,4.81-3.46,9.71-5.22,14.61s-4.18,9.55-6.27,14.45l-13.18,29.46-13.26,29.3c-2.25,4.82-4.18,9.71-6.75,14.29l-7.47,13.57-28.69,51.61c-2.33,4.1-4.42,8-6.83,12.13l-7.56,11.23-14.46,21.6-26,38.93c-17.43,22.32-32.14,40.14-42.1,52.34a159.53,159.53,0,0,1-16.08,18.47,132.92,132.92,0,0,1,13.91-20.47c9.64-13,23.3-31.39,40.18-53.87l25-38.93,13.9-21.76,7.31-11.24c2.33-3.93,4.42-8,6.67-12.12l28-51.54,7.39-13.48c2.57-4.5,4.42-9.4,6.67-14.21,4.26-9.55,8.68-19.27,13.1-29.06s8.84-19.59,13.18-29.14c2.09-4.82,4.5-9.39,6.18-14.29s3.54-9.72,5.31-14.45c6.91-19.11,13.66-37.57,20.09-55.15,1.52-4.34,3.29-8.67,4.66-13l3.61-12.92,7-24.81c4.5-16.05,8.75-30.9,12.61-44.55l13.9-65.59A142.71,142.71,0,0,1-1284,772.79Z" transform="translate(2236.82 -546.05)"/><path class="cls-8" d="M-334.66,1505.88s-92.73,171.55-117.64,174.2c-137.58,14.29-284.95-30.83-336.62-48.73-5.23-6-11.25-13.16-17.92-21.91a86.43,86.43,0,0,1-13-25.21,133.06,133.06,0,0,1-7.48-34.76,10.68,10.68,0,0,0-9.2-12,10.7,10.7,0,0,0-9.36,3.47c-5.94,8-7.39,38.21,6.27,70.56s-34.47,7-52.15-1.92-73.77-33.8-80.84-30.35c-10.29,5-7.07,17.18,10.85,25.69s69.75,37.73,64.28,47.12-94.58-37.33-94.58-37.33-17.52-13.16-24.11-2.48c-11.33,19.18,87.51,61.49,97,65.26,6.58,2.65,1.36,13-5.55,9.88s-88.39-48.65-100-29.23c-8.92,14.94,81,35.65,92.65,54.59s-66.62-22.8-74.65-8c-3,5.46-4.42,10,44,27.3A988.5,988.5,0,0,0-855,1759v.48s464.47,216.75,586.62,1.69c79.87-140.4,87.35-158.23,115.63-237.54" transform="translate(2236.82 -546.05)"/><path class="cls-10" d="M-2213.84,1799.13h904.92a23.05,23.05,0,0,1,23,23v183.19c6,77.79,0,97.06-88.8,103.4v82.68l-81.4-81.32h-757.7a23,23,0,0,1-23-23V1822.25a23.06,23.06,0,0,1,23-23.12Z" transform="translate(2236.82 -546.05)"/><rect class="cls-5" x="299.09" y="1350.38" width="478.45" height="20.47"/><rect class="cls-5" x="299.09" y="1393.32" width="478.45" height="20.47"/><rect class="cls-5" x="299.09" y="1439.56" width="242.52" height="20.47"/><rect class="cls-5" x="123.11" y="1341.22" width="133.64" height="133.5"/><path class="cls-5" d="M967.47,586.19a40.16,40.16,0,0,0-40.18-40.14h0L-74.06,551a40.16,40.16,0,0,0-40.18,40.14l1.53,315.56a40.16,40.16,0,0,0,40.18,40.14h22.1l.64,115.52,113-116.08L928.89,942a40.16,40.16,0,0,0,40.18-40.13Z" transform="translate(2236.82 -546.05)"/><path class="cls-1" d="M664,800.69c-.64-18.14,0-44.88,0-68.72h0a75.17,75.17,0,0,1,17.76-81.32c37.29-38.85,62.52-30.34,77-30.18s81.49,16,100.77,95.61a136.89,136.89,0,0,1,2.09,15.49h0c.4,3.93.81,8,1.13,10.44h0a83.79,83.79,0,0,0,44,68.79,163.24,163.24,0,0,0,13.75-66.71c-.35-91.33-74.75-165.09-166.17-164.74S589,654,589.38,745.35a165.33,165.33,0,0,0,82,142.12A236.16,236.16,0,0,1,664,800.69Z" transform="translate(2236.82 -546.05)"/><path class="cls-6" d="M862.84,742.09h0v.64H862c0,32.11-3.61,140.72-57.29,160.55a165.77,165.77,0,0,0,102.13-91.92A83.79,83.79,0,0,1,862.84,742.09Z" transform="translate(2236.82 -546.05)"/><path class="cls-6" d="M664.19,804.62v-3.93a236.16,236.16,0,0,0,7.32,86.86A161,161,0,0,0,706.3,903c-.64-23-2.73-56.19-2.73-56.19A45.07,45.07,0,0,1,664.19,804.62Z" transform="translate(2236.82 -546.05)"/><path class="cls-10" d="M802.81,733.74s-61.23-6.67-71.44-64.22h0c-3.69,8.67-10.28,27.29-6.1,42.38l-54.65,13.73-6.11,5.7c-.56,24.08-.8,50.57,0,68.72V804a45.08,45.08,0,0,0,39.22,42.63,90.75,90.75,0,0,0,49.5-16.06s-11.49,27.86-48.78,25.85l-.72-9.39s2.09,32.75,2.73,56.19a164,164,0,0,0,49.66,7.39,169.49,169.49,0,0,0,42-5.78Zm-75.21,9.63a4.74,4.74,0,1,1,4.66,5,4.82,4.82,0,0,1-4.66-5Zm-1.13-8a12.21,12.21,0,0,1,7.31-2.89,12.75,12.75,0,0,1,7.64,2.09c1.69,1.2,2.33,2.41,2,2.73s-4.34-1.93-9.49-1.69-8.67,3.29-9.24,2.65.16-1.68,1.77-3.05Zm-56.81-.72a12.29,12.29,0,0,1,7.39-2.89,12,12,0,0,1,7.55,2.17c1.69,1.2,2.33,2.33,2,2.65s-4.34-1.93-9.48-1.69-8.68,3.29-9.24,2.65,0-1.69,1.77-3Zm2.73,8a4.85,4.85,0,1,1,0,.08ZM695,782.22a2.88,2.88,0,0,1-2.17-1.92,8.52,8.52,0,0,1,.56-5.54c1-3.45,2.25-7.07,3.46-10.92A195.56,195.56,0,0,1,707,736.31a199.43,199.43,0,0,1-8,28.25q-1.93,5.63-3.62,10.84a7.48,7.48,0,0,0-.8,4.26c0,.88,1.44,1.12,2.81,1.2a30.82,30.82,0,0,1,8,1.28,36.1,36.1,0,0,1-8.44,0,7.55,7.55,0,0,1-2,.16Zm19.61,18.63a14,14,0,0,1-17-5.14c10.45,0,30.14-11.88,24.91-8a11.16,11.16,0,0,1-7.95,13.25Z" transform="translate(2236.82 -546.05)"/><path class="cls-6" d="M682,742.81a4.82,4.82,0,1,0-4.82,4.81,4.82,4.82,0,0,0,4.82-4.81Z" transform="translate(2236.82 -546.05)"/><path class="cls-6" d="M686.61,736.39s0-1.45-2-2.65a12,12,0,0,0-7.55-2.17,12.29,12.29,0,0,0-7.39,2.89c-1.61,1.36-2.09,2.57-1.77,2.89s4.18-2.41,9.24-2.65S686.13,737.51,686.61,736.39Z" transform="translate(2236.82 -546.05)"/><path class="cls-6" d="M737.08,743.53a4.74,4.74,0,0,0-9.48,0v0a4.74,4.74,0,0,0,9.48,0Z" transform="translate(2236.82 -546.05)"/><path class="cls-6" d="M743.43,737.51a3.52,3.52,0,0,0-2-2.73,12.75,12.75,0,0,0-7.64-2.09,12.28,12.28,0,0,0-7.31,2.89c-1.61,1.37-2.09,2.57-1.77,2.89s4.1-2.41,9.24-2.65S742.94,737.51,743.43,737.51Z" transform="translate(2236.82 -546.05)"/><path class="cls-6" d="M705.66,782.22a30.82,30.82,0,0,0-8-1.28c-1.36,0-2.57,0-2.81-1.2a7.65,7.65,0,0,1,.8-4.26q1.7-5.13,3.62-10.84a200.8,200.8,0,0,0,8-28.25,195.61,195.61,0,0,0-10.21,27.53c-1.21,3.85-2.41,7.47-3.46,10.92a8.52,8.52,0,0,0-.56,5.54,2.88,2.88,0,0,0,2.17,1.92,7.71,7.71,0,0,0,2.25,0A36.27,36.27,0,0,0,705.66,782.22Z" transform="translate(2236.82 -546.05)"/><path class="cls-4" d="M697.62,795.79a14,14,0,0,0,17,5.14,11.16,11.16,0,0,0,8-13.57C727.76,783.91,708.07,796,697.62,795.79Z" transform="translate(2236.82 -546.05)"/><path class="cls-6" d="M752.91,830.79a90.8,90.8,0,0,1-49.5,16.06l.72,9.39C741.42,858.65,752.91,830.79,752.91,830.79Z" transform="translate(2236.82 -546.05)"/><path class="cls-6" d="M862,742.57h.89v-.64c0-2.73-.72-6.51-1.13-10.44h0A136.89,136.89,0,0,0,859.62,716c-19.28-79.8-87.26-95.45-100.77-95.61s-39.69-8.67-77,30.18a75.17,75.17,0,0,0-17.76,81.32h0l6.11-5.7,54.64-13.73c-4.18-15.09,2.41-33.71,6.11-42.38h0c10.21,57.23,71.44,64.22,71.44,64.22l-5,170.91c2.25-.64,4.58-1.13,6.83-1.85C858.34,883.29,862.28,774.28,862,742.57Z" transform="translate(2236.82 -546.05)"/><rect class="cls-6" x="8.43" y="665.96" width="520.4" height="28.66" transform="translate(2233.5 -544.73) rotate(-0.28)"/><rect class="cls-6" x="8.87" y="739.65" width="520.4" height="28.66" transform="translate(2233.14 -544.73) rotate(-0.28)"/><rect class="cls-6" x="9.15" y="811.9" width="257.95" height="28.66" transform="translate(2232.79 -545.37) rotate(-0.28)"/></svg>